<?xml version="1.0" encoding="utf-8"?>
<!-- Generator: Adobe Illustrator 24.2.3, SVG Export Plug-In . SVG Version: 6.00 Build 0)  -->
<svg version="1.1" xmlns="http://www.w3.org/2000/svg" xmlns:xlink="http://www.w3.org/1999/xlink" x="0px" y="0px"
	 viewBox="0 0 800 600" style="enable-background:new 0 0 800 600;" xml:space="preserve">
<style type="text/css">
	.st0{fill:none;}
	.st1{fill:#808184;}
	.st2{fill:#414141;}
	.st3{fill:#D91C5C;}
	.st4{fill:none;stroke:#808184;stroke-width:4.0884;stroke-linecap:round;stroke-miterlimit:10;}
	.st5{fill:none;stroke:#FFFFFF;stroke-width:4.0884;stroke-linecap:round;stroke-miterlimit:10;}
	.st6{fill:none;stroke:#D0D2D3;stroke-width:4.0884;stroke-linecap:round;stroke-miterlimit:10;}
	.st7{fill:none;stroke:#D0D2D3;stroke-width:5.6148;stroke-linecap:round;stroke-miterlimit:10;}
	.st8{fill:#D0D2D3;}
	.st9{fill:none;stroke:#D91C5C;stroke-width:3.5766;stroke-linecap:round;stroke-linejoin:round;stroke-miterlimit:10;}
	.st10{fill:none;stroke:#D0D2D3;stroke-width:3.577;stroke-linecap:round;stroke-miterlimit:10;}
	.st11{fill:none;stroke:#D0D2D3;stroke-width:2.9682;stroke-linecap:round;stroke-miterlimit:10;}
	.st12{fill:none;stroke:#808184;stroke-width:2.9682;stroke-linecap:round;stroke-miterlimit:10;}
</style>
<g id="Warstwa_5">
</g>
<g id="Warstwa_4">
	<path class="st0" d="M402.01,307.17l-58.83-1.93l0.16,1.39c1.51,13.44,8.85,25.48,20.13,33.05l10.6,7.07
		c7.46,5.07,16.61,7.6,25.75,7.6c9.13,0,18.26-2.53,25.7-7.58l10.08-6.67c11.66-7.87,19.22-20.06,20.74-33.46l0.21-1.8l-14.25,2.34
		H402.01z M415.93,328.39c-3.45,3.46-9.63,7.15-16.62,7.15c-5.63,0-10.89-2.41-15.64-7.15c-0.77-0.77-0.77-2.01,0-2.78
		c0.38-0.38,0.89-0.57,1.39-0.57c0.5,0,1.01,0.19,1.39,0.57c12.79,12.8,25.32,1.36,26.71,0c0.77-0.76,2.01-0.75,2.77,0.02
		c0.37,0.37,0.58,0.86,0.58,1.39C416.5,327.53,416.3,328.02,415.93,328.39z"/>
	<polygon class="st0" points="301.32,415.32 395.42,455.65 358.71,387.24 	"/>
	<polygon class="st0" points="404.04,455.71 498.39,415.27 440.3,385.22 	"/>
	<path class="st0" d="M429.1,349.08l-2.03,1.33c-8,5.25-17.39,8.03-27.13,8.03c-9.91,0-19.4-2.78-27.43-8.03l-2.02-1.32l-8.86,35.28
		l38.12,71.07l37.62-73.12L429.1,349.08z"/>
	<path class="st1" d="M537.8,424.92l-34.45-11.51l-12.93-6.69l0.03-1.08c0.45-14.64,1.77-30.84,3.05-46.51
		c5.08-62.24,10.84-132.79-23.71-170.28c-15.88-17.23-39.43-25.96-70-25.96c-30.54,0-54.08,8.73-69.95,25.94
		c-34.53,37.45-28.81,107.96-23.75,170.17c1.48,18.18,2.65,33.13,3.06,46.99l0.03,1.11l-13.44,6.56l-34.02,11.29
		c-6.75,2.37-11.3,8.74-11.3,15.85v18.86c0,1.08,0.88,1.96,1.96,1.96c1.08,0,1.96-0.88,1.96-1.96V440.8
		c0-5.45,3.48-10.32,8.65-12.13l33.52-11.12l0.6,0.26l101.89,43.66c0.56,0.25,1.03,0.25,1.58,0.01l102.49-43.92l33.43,11.09
		c5.24,1.83,8.74,6.72,8.74,12.16v18.86c0,1.08,0.88,1.96,1.96,1.96s1.96-0.88,1.96-1.96V440.8
		C549.18,433.7,544.61,427.32,537.8,424.92z M332.74,191.5L332.74,191.5c15.3-16.61,37.23-24.68,67.05-24.68
		c29.83,0,51.78,8.08,67.1,24.69c33.39,36.23,27.7,105.86,22.68,167.3c-1.28,15.79-2.38,29.94-2.9,43.21l-0.11,2.71l-45.42-23.5
		l-8.58-34.44l5.78-3.85c12.48-8.37,20.5-21.64,22-36.39l0.15-1.47l-3.97-0.24l-0.21,1.8c-1.52,13.4-9.08,25.59-20.74,33.46
		l-10.08,6.67c-7.44,5.05-16.57,7.58-25.7,7.58c-9.14,0-18.29-2.53-25.75-7.6l-10.6-7.07c-11.28-7.57-18.61-19.61-20.13-33.05
		l-0.16-1.39l-4.07-0.13l0.15,1.48c1.52,14.75,9.8,28.16,22.72,36.78l5.05,3.39l-9.16,36.51l-44.83,21.94l-0.1-2.64
		c-0.5-13.39-1.62-27.76-2.92-43.81C305.03,297.32,299.37,227.69,332.74,191.5z M301.32,415.32l57.39-28.09l36.71,68.41
		L301.32,415.32z M399.76,455.44l-38.12-71.07l8.86-35.28l2.02,1.32c8.03,5.25,17.51,8.03,27.43,8.03c9.74,0,19.13-2.78,27.13-8.03
		l2.03-1.33l8.28,33.23L399.76,455.44z M404.04,455.71l36.26-70.49l58.09,30.05L404.04,455.71z"/>
	<path class="st2" d="M413.16,325.61c-1.4,1.36-13.92,12.8-26.71,0c-0.38-0.38-0.89-0.57-1.39-0.57c-0.5,0-1.01,0.19-1.39,0.57
		c-0.77,0.77-0.77,2.01,0,2.78c4.75,4.75,10.01,7.15,15.64,7.15c6.99,0,13.17-3.69,16.62-7.15c0.37-0.37,0.58-0.86,0.58-1.38
		c0-0.52-0.2-1.01-0.58-1.39C415.17,324.86,413.93,324.85,413.16,325.61z"/>
	<path class="st3" d="M452.84,304.27H344.22c-9.06,0-16.4-7.34-16.4-16.4v-36.88c0-9.06,7.34-16.4,16.4-16.4h108.62
		c9.06,0,16.4,7.34,16.4,16.4v36.88C469.24,296.93,461.9,304.27,452.84,304.27z"/>
	<path class="st4" d="M461.83,306.91H335.23c-5.32,0-9.64-4.32-9.64-9.64V241.6c0-5.32,4.32-9.64,9.64-9.64h126.59
		c5.32,0,9.64,4.32,9.64,9.64v55.66C471.47,302.59,467.15,306.91,461.83,306.91z"/>
	<polyline class="st5" points="355.71,246.83 370.52,256.58 346.72,290.81 	"/>
	<polyline class="st5" points="443.03,246.83 428.21,256.58 452.02,290.81 	"/>
	<rect x="37.71" y="187.04" class="st4" width="169.13" height="169.13"/>
	<polyline class="st4" points="220.2,209.27 248.22,209.27 248.22,333.94 220.39,333.94 	"/>
	<polyline class="st4" points="262.7,220.15 283.8,220.15 283.8,323.06 262.45,323.06 	"/>
	
		<rect x="595.91" y="187.04" transform="matrix(-1 -4.489177e-11 4.489177e-11 -1 1360.9424 543.2103)" class="st4" width="169.13" height="169.13"/>
	<polyline class="st4" points="582.54,209.27 554.53,209.27 554.53,333.94 582.36,333.94 	"/>
	<polyline class="st4" points="540.04,220.15 518.94,220.15 518.94,323.06 540.3,323.06 	"/>
	<line class="st6" x1="443.62" y1="569.49" x2="477.95" y2="569.49"/>
	<line class="st6" x1="490.26" y1="569.49" x2="498.88" y2="569.49"/>
	<line class="st6" x1="535.88" y1="161.36" x2="501.55" y2="161.36"/>
	<line class="st6" x1="489.24" y1="161.36" x2="480.62" y2="161.36"/>
	<line class="st6" x1="269.57" y1="533.78" x2="277.1" y2="533.78"/>
	<line class="st6" x1="289.41" y1="533.78" x2="298.04" y2="533.78"/>
	<line class="st6" x1="691.19" y1="420.82" x2="698.73" y2="420.82"/>
	<line class="st6" x1="617.89" y1="507.66" x2="626.51" y2="507.66"/>
	<line class="st7" x1="143.66" y1="101.71" x2="151.2" y2="101.71"/>
	<line class="st6" x1="252.31" y1="157.72" x2="260.93" y2="157.72"/>
	<line class="st6" x1="594.88" y1="71.36" x2="602.42" y2="71.36"/>
	<line class="st6" x1="614.73" y1="71.36" x2="623.36" y2="71.36"/>
	<circle class="st6" cx="325.2" cy="55.06" r="5.53"/>
	<circle class="st8" cx="598.65" cy="392.77" r="5.53"/>
	<circle class="st8" cx="127.81" cy="421.44" r="5.53"/>
	<polygon class="st9" points="683.54,316.15 702.61,327.53 740.75,327.53 721.68,316.15 	"/>
	<line class="st10" x1="720.84" y1="278.02" x2="740.75" y2="289.39"/>
	<line class="st10" x1="683.54" y1="278.02" x2="702.61" y2="289.39"/>
	<rect x="683.54" y="216.18" class="st10" width="38.14" height="38.14"/>
	<line class="st10" x1="720.84" y1="216.18" x2="740.75" y2="227.55"/>
	<line class="st10" x1="683.54" y1="216.18" x2="702.61" y2="227.55"/>
	<line class="st10" x1="683.54" y1="254.32" x2="702.61" y2="265.69"/>
	<line class="st10" x1="721.68" y1="254.32" x2="740.75" y2="265.69"/>
	<rect x="637.03" y="289.7" class="st10" width="38.14" height="38.14"/>
	<rect x="617.96" y="278.33" class="st10" width="38.14" height="38.14"/>
	<line class="st10" x1="655.26" y1="278.33" x2="675.17" y2="289.7"/>
	<polygon class="st9" points="617.96,316.46 637.03,327.84 637.03,289.7 617.96,278.33 	"/>
	<line class="st10" x1="656.1" y1="316.46" x2="675.17" y2="327.84"/>
	<path class="st11" d="M121.84,231.33c32.77,0,59.34,18.29,59.34,40.86c0,22.57-26.57,40.86-59.34,40.86"/>
	<path class="st11" d="M125.55,223.4c14.88-4.28,29.14-2.29,38.26,6.83c15.96,15.96,10.11,47.68-13.07,70.86
		c-23.18,23.18-54.9,29.03-70.86,13.07c-6.53-6.53-9.41-15.71-8.94-25.85"/>
	<path class="st12" d="M121.84,331.54c-22.57,0-40.86-26.57-40.86-59.34s18.29-59.34,40.86-59.34"/>
	<circle class="st3" cx="121.84" cy="272.19" r="11.49"/>
	<rect x="702.61" y="227.55" class="st9" width="38.14" height="38.14"/>
	<polyline class="st10" points="702.61,327.53 702.61,289.39 740.75,289.39 740.75,327.53 	"/>
	<polyline class="st10" points="683.54,316.15 683.54,278.02 721.68,278.02 721.68,316.15 	"/>
</g>
<g id="Warstwa_3">
</g>
<g id="Warstwa_2">
</g>
</svg>
