<?xml version="1.0" encoding="utf-8"?>
<!-- Generator: Adobe Illustrator 24.2.3, SVG Export Plug-In . SVG Version: 6.00 Build 0)  -->
<svg version="1.1" xmlns="http://www.w3.org/2000/svg" xmlns:xlink="http://www.w3.org/1999/xlink" x="0px" y="0px"
	 viewBox="0 0 800 600" style="enable-background:new 0 0 800 600;" xml:space="preserve">
<style type="text/css">
	.st0{fill:none;stroke:#808184;stroke-width:4.4053;stroke-linecap:round;stroke-miterlimit:10;}
	.st1{fill:#D91C5C;}
	.st2{fill:#808184;}
	.st3{fill:#D0D2D3;}
	.st4{fill:none;stroke:#D0D2D3;stroke-width:4.4053;stroke-linecap:round;stroke-miterlimit:10;}
</style>
<g id="Warstwa_5">
</g>
<g id="Warstwa_4">
	<line class="st0" x1="117" y1="106.21" x2="117" y2="437.2"/>
	<line class="st0" x1="58.77" y1="133" x2="58.77" y2="411.32"/>
	<line class="st0" x1="741.23" y1="133.49" x2="741.23" y2="411.11"/>
	<line class="st0" x1="684.47" y1="106.21" x2="684.47" y2="436.89"/>
	<path class="st0" d="M741.23,410.41c0,9.77-20.82,18.86-56.57,26.44"/>
	<path class="st0" d="M117.53,383.52c61.38-12.69,164.99-21.03,282.47-21.03c119.21,0,224.15,8.59,285.17,21.6"/>
	<path class="st0" d="M117.04,437.21c-36.79-7.65-58.28-16.87-58.28-26.8"/>
	<path class="st0" d="M58.77,133c0-9.92,21.47-19.14,58.24-26.79"/>
	<path class="st0" d="M684.72,159.42c-61.08,12.96-165.8,21.5-284.72,21.5c-117.79,0-221.63-8.38-282.96-21.13"/>
	<path class="st0" d="M684.47,106.52c35.87,7.59,56.76,16.69,56.76,26.48"/>
	<g>
		<g>
			<g>
				<path class="st0" d="M262.37,238.57c2.41,7.12,4.83,14.2,7.24,21.23"/>
				<path class="st0" d="M280.44,292.2c9.41,7.56,18.81,14.95,28.22,22.25"/>
				<path class="st0" d="M201.48,320.85c18.58-11.06,37.19-21.26,55.8-30.91"/>
				<path class="st0" d="M157.16,302.11c5.61,5.3,11.21,10.48,16.82,15.54"/>
				<path class="st0" d="M283.69,271.49c19.98-9.87,39.96-19.28,59.96-28.61"/>
				<path class="st0" d="M358.64,249.43c0.86,7.39,1.72,14.78,2.58,22.16"/>
				<path class="st0" d="M196.14,242.5c19.98,10.39,39.98,19.92,60,28.93"/>
			</g>
			<path class="st0" d="M644.36,339.87c-74.22-7.34-148.83-11.38-223.49-12.13c-0.03,0-0.06,0-0.09,0c0-40.04,0-80.07,0-120.11"/>
			<path class="st1" d="M469.93,212.62c-13.38,0.44-26.77,0.76-40.15,0.96c0,37.6,0,75.2,0,112.8c13.39,0.18,26.77,0.45,40.15,0.84
				C469.93,289.02,469.93,250.82,469.93,212.62z"/>
			<path class="st2" d="M525.62,256.92c-13.37,0.21-26.74,0.38-40.11,0.52c0,23.42,0,46.84,0,70.27c13.38,0.46,26.75,1.03,40.11,1.7
				C525.62,305.25,525.62,281.09,525.62,256.92z"/>
			<path class="st3" d="M581.24,231.59c-13.35,0.69-26.7,1.3-40.06,1.84c0,32.27,0,64.54,0,96.81c13.36,0.75,26.72,1.6,40.06,2.55
				C581.24,299.05,581.24,265.32,581.24,231.59z"/>
			<path class="st2" d="M636.76,292.5c-13.32-0.36-26.64-0.7-39.98-1c0,14.15,0,28.29,0,42.44c13.34,1.03,26.67,2.17,39.98,3.41
				C636.76,322.41,636.76,307.46,636.76,292.5z"/>
			<g>
				<path class="st2" d="M259.12,229.01c-0.31-0.01-0.57,0.28-0.57,0.65c0,0.37,0.26,0.68,0.57,0.7c0.31,0.01,0.57-0.28,0.57-0.65
					C259.69,229.34,259.44,229.03,259.12,229.01z"/>
				<path class="st2" d="M261.53,229.11c-0.31-0.01-0.57,0.28-0.57,0.65c0,0.37,0.26,0.68,0.57,0.69c0.31,0.01,0.57-0.28,0.57-0.65
					C262.1,229.44,261.85,229.13,261.53,229.11z"/>
				<path class="st2" d="M256.71,228.91c-0.31-0.01-0.57,0.28-0.57,0.65c0,0.37,0.25,0.68,0.57,0.7c0.31,0.01,0.57-0.28,0.57-0.65
					C257.29,229.24,257.03,228.92,256.71,228.91z"/>
				<path class="st2" d="M264.9,220.89c-2.58-0.13-4.67,1.47-4.71,3.58c0.64,0.16,1.23,0.42,1.75,0.77
					c-0.01-0.04-0.02-0.08-0.02-0.13c0-0.37,0.26-0.66,0.58-0.64c0.31,0.01,0.57,0.32,0.57,0.69c0,0.32-0.19,0.56-0.44,0.62
					c0.77,0.73,1.25,1.68,1.33,2.72c0.31,0.06,0.62,0.1,0.94,0.12c0.29,0.01,0.58,0,0.9-0.03c0.22-0.03,0.44-0.05,0.66-0.08
					c0.09,0.24,0.17,0.49,0.26,0.73c0.06,0.17,0.1,0.34,0.14,0.5c0.05-0.24,0.06-0.47,0.06-0.68c-0.01-0.23-0.01-0.45-0.02-0.68
					c0.18-0.09,0.35-0.17,0.53-0.26c1.37-0.67,2.19-1.84,2.19-3.15C269.62,222.84,267.51,221.02,264.9,220.89z M264.9,225.92
					c-0.31-0.01-0.57-0.32-0.57-0.69c0-0.37,0.26-0.66,0.57-0.64c0.31,0.01,0.57,0.32,0.57,0.69
					C265.47,225.64,265.21,225.93,264.9,225.92z M267.31,226.02c-0.31-0.01-0.57-0.32-0.57-0.69c0-0.37,0.26-0.66,0.57-0.64
					c0.31,0.01,0.57,0.32,0.57,0.69C267.87,225.75,267.62,226.03,267.31,226.02z"/>
				<path class="st2" d="M262.37,213.94c-6.4-0.37-11.58,5.48-11.58,13.1c0,7.63,5.18,13.96,11.58,14.14
					c6.4,0.18,11.58-5.71,11.58-13.15C273.96,220.6,268.77,214.31,262.37,213.94z M267.79,229.06c0.02,0.83-0.18,2.66-2.24,3.34
					c0,0,0.82-1.54,0.36-2.79c-0.33,0.04-0.67,0.06-1.02,0.05c-0.34-0.01-0.67-0.06-0.99-0.13c-0.4,1.99-2.37,3.45-4.78,3.35
					c-0.3-0.01-0.6-0.05-0.89-0.11c-0.39,1.07,0.31,2.47,0.31,2.47c-1.79-0.72-1.96-2.36-1.94-3.08c-1.41-0.81-2.36-2.21-2.36-3.77
					c0-2.38,2.18-4.2,4.87-4.07c0.07,0,0.13,0.02,0.2,0.03c0.1-2.64,2.55-4.63,5.58-4.48c3.09,0.15,5.6,2.45,5.6,5.13
					C270.5,226.77,269.4,228.27,267.79,229.06z"/>
			</g>
			<g>
				<path class="st2" d="M356.39,222.64c0.34,0.21,0.57,0.59,0.57,1.04c0,2.8,0,5.61,0,8.41c0.83,0.92,1.65,1.85,2.47,2.77
					c0.42,0.47,0.42,1.22,0,1.68c-0.21,0.23-0.48,0.34-0.76,0.34c-0.28,0-0.55-0.12-0.76-0.36c-1.04-1.16-2.07-2.32-3.11-3.48
					c0-3.13,0-6.27,0-9.4c0-0.45,0.24-0.83,0.57-1.03c-4.53,0.22-8.15,4.31-8.15,9.43c0,5.31,3.88,9.67,8.65,9.71
					c4.77,0.04,8.65-4.23,8.65-9.5C364.54,227.18,360.92,223.01,356.39,222.64z"/>
				<path class="st2" d="M355.88,211.21c-10.44-0.2-18.9,9.01-18.9,20.68c0,11.67,8.46,21.2,18.9,21.25
					c10.44,0.06,18.91-9.26,18.91-20.79C374.79,220.82,366.32,211.41,355.88,211.21z M355.88,244.15
					c-5.96-0.05-10.8-5.48-10.8-12.12c0-6.65,4.84-11.93,10.8-11.83c5.97,0.1,10.8,5.5,10.8,12.09
					C366.68,238.88,361.85,244.2,355.88,244.15z"/>
			</g>
			<g>
				<path class="st2" d="M313.39,326.05c6.68-0.21,13.37-0.39,20.05-0.54c0-4.68,0-9.36,0-14.04c-6.69,0.11-13.37,0.24-20.05,0.39
					C313.39,316.6,313.39,321.33,313.39,326.05z M326.63,317.37c0.61-0.01,1.23-0.03,1.84-0.04c0,1.82,0,3.64,0,5.46
					c-0.61,0.01-1.23,0.03-1.84,0.04C326.63,321.01,326.63,319.19,326.63,317.37z M323.87,319.71c0.61-0.01,1.23-0.03,1.84-0.04
					c0,1.06,0,2.13,0,3.19c-0.61,0.02-1.23,0.03-1.84,0.05C323.87,321.84,323.87,320.78,323.87,319.71z M321.11,313.22
					c0.61-0.01,1.23-0.03,1.84-0.04c0,3.25,0,6.5,0,9.74c-0.61,0.02-1.23,0.03-1.84,0.05C321.11,319.72,321.11,316.47,321.11,313.22
					z M318.36,316.3c0.61-0.01,1.22-0.03,1.83-0.04c0,2.25,0,4.49,0,6.74c-0.61,0.02-1.22,0.03-1.83,0.05
					C318.36,320.8,318.36,318.55,318.36,316.3z M318.36,323.82c3.37-0.09,6.75-0.18,10.12-0.26c0,0.19,0,0.37,0,0.56
					c-3.37,0.08-6.75,0.17-10.12,0.27C318.36,324.19,318.36,324.01,318.36,323.82z"/>
				<path class="st2" d="M323.42,300.72c-10.44,0.12-18.9,9.89-18.9,21.78c0,11.89,8.46,21.11,18.9,20.71
					c10.44-0.4,18.9-10.03,18.9-21.65C342.32,309.94,333.85,300.59,323.42,300.72z M335.19,324.81c0,1.39-1.01,2.53-2.25,2.56
					c-2.01,0.05-4.02,0.1-6.04,0.15c1.16,2.14,2.31,4.27,3.47,6.4c-4.64,0.13-9.28,0.28-13.92,0.44c1.16-2.22,2.31-4.43,3.47-6.64
					c-2.01,0.06-4.03,0.12-6.04,0.18c-1.24,0.04-2.25-1.06-2.25-2.47c0-4.29,0-8.58,0-12.87c0-1.4,1.01-2.56,2.25-2.59
					c6.35-0.13,12.7-0.25,19.05-0.36c1.24-0.02,2.25,1.09,2.25,2.47C335.19,316.34,335.19,320.58,335.19,324.81z"/>
			</g>
			<g>
				<path class="st2" d="M155.75,292.06c-0.33,0.73-0.85,1.29-1.46,1.57c0.65,0.21,1.24,0.72,1.74,1.4c0.34-0.4,0.72-0.69,1.13-0.85
					C156.44,293.89,155.88,293.08,155.75,292.06z"/>
				<path class="st2" d="M153.55,281.52c-4.95,0.04-8.95,5.56-8.95,12.34c0,6.78,4.01,12.06,8.95,11.81
					c4.95-0.25,8.96-5.76,8.96-12.33C162.51,286.77,158.5,281.48,153.55,281.52z M155.96,300.48c-2.75,0.11-5.5,0.22-8.25,0.33
					c0.04-3.46,1.44-6.37,3.3-7.08c-1.08-0.44-1.87-1.77-1.87-3.39c0-2.01,1.2-3.66,2.68-3.69c1.41-0.03,2.55,1.42,2.66,3.27
					c0.38-0.69,0.99-1.16,1.67-1.17c1.16-0.02,2.1,1.21,2.1,2.76c0,1.24-0.62,2.31-1.46,2.69c1.45,0.46,2.55,2.63,2.58,5.27
					c-1.16,0.04-2.32,0.09-3.49,0.13C155.93,299.89,155.96,300.18,155.96,300.48z"/>
			</g>
			<path class="st2" d="M361.22,264.78c-7.65-0.02-13.85,6.85-13.85,15.37c0,8.51,6.2,15.36,13.85,15.31
				c7.65-0.05,13.86-6.91,13.86-15.36C375.08,271.66,368.88,264.8,361.22,264.78z M356.02,274.37c3.47,0,6.93,0,10.4,0
				c0.3,0,0.58,0.09,0.83,0.24c-2.01,1.94-4.02,3.89-6.03,5.84c-2.01-1.94-4.01-3.89-6.02-5.83
				C355.45,274.46,355.72,274.37,356.02,274.37z M354.29,283.97c0-2.56,0-5.12,0-7.69c0-0.38,0.1-0.72,0.27-1.02
				c1.44,1.4,2.88,2.8,4.33,4.19c-1.46,1.81-2.92,3.63-4.37,5.44C354.38,284.63,354.29,284.32,354.29,283.97z M366.42,285.86
				c-3.47,0.01-6.93,0.02-10.4,0.03c-0.34,0-0.64-0.11-0.91-0.29c1.48-1.84,2.96-3.68,4.43-5.51c0.46,0.45,0.93,0.9,1.39,1.35
				c0.08,0.08,0.18,0.12,0.28,0.11c0.1,0,0.2-0.04,0.29-0.12c0.47-0.45,0.93-0.9,1.4-1.35c1.48,1.83,2.96,3.65,4.43,5.48
				C367.07,285.75,366.76,285.86,366.42,285.86z M368.15,283.94c0,0.34-0.09,0.65-0.22,0.93c-1.46-1.8-2.92-3.6-4.38-5.41
				c1.44-1.4,2.89-2.8,4.33-4.19c0.16,0.3,0.27,0.64,0.27,1.02C368.15,278.83,368.15,281.39,368.15,283.94z"/>
			<g>
				<path class="st2" d="M184.97,219.76c-1.54-0.11-3.09-0.23-4.63-0.34c-0.5-0.04-0.9,0.45-0.9,1.1c0,0.29,0,0.58,0,0.87
					c2.14,0.15,4.28,0.3,6.43,0.45c0-0.29,0-0.58,0-0.86C185.87,220.34,185.47,219.8,184.97,219.76z"/>
				<path class="st2" d="M182.65,205.49c-10.4-1.03-18.82,9.29-18.82,23.15c0,13.86,8.42,25.28,18.82,25.49
					c10.4,0.22,18.83-10.2,18.83-23.25C201.48,217.84,193.05,206.51,182.65,205.49z M194.01,240.17c0,1.05-0.67,1.88-1.49,1.84
					c-6.58-0.27-13.15-0.56-19.72-0.86c-0.83-0.04-1.5-0.95-1.5-2.03c0-5.45,0-10.91,0-16.36c0-1.08,0.67-1.91,1.5-1.85
					c1.82,0.13,3.63,0.27,5.45,0.4c0-0.29,0-0.58,0-0.87c0-1.5,0.94-2.65,2.09-2.56c1.54,0.12,3.09,0.23,4.63,0.35
					c1.15,0.09,2.09,1.36,2.09,2.84c0,0.29,0,0.57,0,0.86c1.82,0.13,3.64,0.25,5.46,0.37c0.83,0.06,1.49,0.95,1.49,2
					C194.01,229.59,194.01,234.88,194.01,240.17z"/>
			</g>
			<g>
				<path class="st2" d="M189.52,319.53c-0.57,0.03-1.13,0.23-1.65,0.57c-1.98,1.29-2.85,4.39-1.94,6.87
					c0.65,1.76,2.06,2.81,3.6,2.69c0.57-0.04,1.12-0.23,1.65-0.58c1.98-1.31,2.85-4.36,1.94-6.83
					C192.48,320.51,191.06,319.43,189.52,319.53z"/>
				<path class="st2" d="M186.49,304.45c-10.4,0.35-18.82,11.85-18.82,25.63c0,13.79,8.42,23.92,18.82,22.77
					c10.4-1.15,18.84-12.52,18.84-25.51C205.33,314.36,196.89,304.09,186.49,304.45z M184.68,339.27c-0.06,0.19-0.17,0.36-0.31,0.46
					c-0.15,0.1-0.31,0.12-0.45,0.06c-0.17-0.06-0.33-0.13-0.5-0.19c-0.21,0.4-0.46,0.78-0.74,1.1c0.07,0.2,0.15,0.4,0.22,0.6
					c0.14,0.37,0.01,0.84-0.29,1.05c-0.2,0.14-0.4,0.28-0.61,0.41c-0.3,0.2-0.65,0.07-0.79-0.3c-0.07-0.2-0.15-0.4-0.22-0.6
					c-0.37,0.13-0.73,0.17-1.09,0.16c-0.06,0.22-0.12,0.44-0.18,0.66c-0.05,0.2-0.16,0.36-0.31,0.46c-0.14,0.1-0.31,0.12-0.45,0.07
					c-0.21-0.08-0.42-0.16-0.63-0.24c-0.15-0.06-0.27-0.19-0.33-0.37c-0.07-0.18-0.08-0.39-0.02-0.59c0.06-0.22,0.12-0.44,0.18-0.66
					c-0.29-0.24-0.57-0.54-0.8-0.89c-0.16,0.11-0.32,0.22-0.48,0.33c-0.3,0.2-0.65,0.07-0.79-0.31c-0.09-0.25-0.19-0.51-0.28-0.76
					c-0.14-0.37,0-0.85,0.29-1.05c0.16-0.11,0.32-0.22,0.48-0.33c-0.07-0.47-0.08-0.95-0.04-1.42c-0.17-0.07-0.33-0.13-0.5-0.2
					c-0.15-0.06-0.27-0.19-0.33-0.37c-0.06-0.19-0.07-0.39-0.02-0.59c0.08-0.28,0.15-0.56,0.23-0.84c0.11-0.4,0.47-0.65,0.77-0.53
					c0.16,0.07,0.33,0.13,0.49,0.2c0.2-0.4,0.46-0.78,0.74-1.11c-0.07-0.2-0.15-0.4-0.22-0.6c-0.14-0.37,0-0.85,0.29-1.05
					c0.2-0.14,0.4-0.27,0.6-0.41c0.3-0.2,0.65-0.06,0.79,0.32c0.07,0.2,0.15,0.4,0.22,0.6c0.36-0.11,0.73-0.16,1.09-0.14
					c0.06-0.22,0.12-0.43,0.18-0.65c0.11-0.4,0.47-0.63,0.77-0.52c0.21,0.08,0.42,0.17,0.62,0.25c0.31,0.12,0.46,0.55,0.35,0.96
					c-0.06,0.22-0.12,0.43-0.18,0.65c0.3,0.24,0.57,0.54,0.8,0.89c0.16-0.11,0.32-0.21,0.48-0.32c0.3-0.2,0.65-0.06,0.79,0.32
					c0.09,0.25,0.19,0.5,0.28,0.75c0.14,0.37,0.01,0.84-0.29,1.04c-0.16,0.11-0.32,0.22-0.48,0.32c0.07,0.46,0.08,0.94,0.04,1.4
					c0.16,0.06,0.33,0.13,0.49,0.19c0.31,0.12,0.46,0.55,0.35,0.95C184.83,338.72,184.75,338.99,184.68,339.27z M197.27,326.95
					c-0.13,0.45-0.26,0.91-0.39,1.36c-0.09,0.32-0.28,0.58-0.52,0.75c-0.24,0.16-0.52,0.19-0.76,0.09
					c-0.28-0.11-0.55-0.22-0.83-0.34c-0.35,0.67-0.76,1.28-1.25,1.81c0.12,0.33,0.24,0.66,0.37,1c0.24,0.62,0.02,1.4-0.49,1.73
					c-0.34,0.23-0.68,0.45-1.02,0.68c-0.5,0.33-1.1,0.1-1.33-0.52c-0.12-0.33-0.24-0.66-0.36-0.99c-0.62,0.19-1.24,0.27-1.84,0.23
					c-0.1,0.36-0.2,0.72-0.31,1.09c-0.1,0.33-0.28,0.6-0.52,0.76c-0.24,0.17-0.51,0.2-0.77,0.1c-0.35-0.14-0.7-0.28-1.05-0.41
					c-0.25-0.1-0.45-0.32-0.56-0.62c-0.11-0.3-0.12-0.65-0.03-0.99c0.1-0.36,0.21-0.72,0.31-1.09c-0.5-0.41-0.96-0.9-1.35-1.5
					c-0.27,0.18-0.53,0.36-0.8,0.53c-0.5,0.33-1.1,0.1-1.33-0.53c-0.16-0.43-0.31-0.86-0.47-1.28c-0.23-0.63-0.01-1.41,0.5-1.75
					c0.27-0.18,0.53-0.35,0.8-0.53c-0.11-0.78-0.14-1.58-0.07-2.37c-0.28-0.11-0.56-0.23-0.83-0.34c-0.25-0.1-0.45-0.33-0.56-0.63
					c-0.12-0.31-0.12-0.65-0.03-0.98c0.13-0.46,0.26-0.93,0.39-1.39c0.18-0.66,0.78-1.05,1.29-0.84c0.28,0.12,0.55,0.23,0.83,0.35
					c0.34-0.67,0.76-1.28,1.25-1.82c-0.12-0.34-0.25-0.67-0.37-1.01c-0.23-0.63-0.01-1.41,0.49-1.73c0.34-0.22,0.68-0.44,1.02-0.66
					c0.5-0.33,1.1-0.08,1.32,0.56c0.13,0.34,0.25,0.67,0.38,1.01c0.61-0.18,1.23-0.24,1.83-0.19c0.1-0.36,0.21-0.72,0.31-1.08
					c0.18-0.65,0.78-1.04,1.29-0.83c0.35,0.15,0.7,0.29,1.05,0.44c0.52,0.22,0.78,0.94,0.59,1.6c-0.1,0.36-0.2,0.72-0.31,1.08
					c0.5,0.41,0.96,0.91,1.35,1.51c0.27-0.17,0.54-0.35,0.8-0.52c0.5-0.32,1.09-0.07,1.33,0.55c0.15,0.42,0.31,0.84,0.46,1.26
					c0.23,0.62,0.01,1.39-0.49,1.71c-0.27,0.17-0.53,0.34-0.8,0.52c0.11,0.77,0.14,1.56,0.07,2.33c0.28,0.11,0.56,0.22,0.83,0.33
					C197.2,325.57,197.46,326.29,197.27,326.95z"/>
				<path class="st2" d="M180.3,334.05c-0.34,0.03-0.67,0.15-0.99,0.36c-1.17,0.8-1.7,2.67-1.15,4.15c0.38,1.05,1.22,1.67,2.14,1.59
					c0.34-0.03,0.66-0.16,0.98-0.37c1.18-0.81,1.69-2.66,1.15-4.14C182.05,334.6,181.22,333.97,180.3,334.05z"/>
			</g>
			<path class="st1" d="M269.91,255.99c-10.43-0.2-18.88,9.69-18.88,22.13c0,12.44,8.45,22.26,18.88,21.98
				c10.43-0.27,18.88-10.15,18.88-22.11C288.79,266.02,280.33,256.19,269.91,255.99z M268.35,264.2c0.42-0.48,0.92-0.73,1.5-0.72
				c0.58,0.01,1.08,0.26,1.48,0.75c0.4,0.49,0.6,1.08,0.6,1.76c0,0.68-0.2,1.27-0.6,1.75c-0.4,0.49-0.9,0.73-1.48,0.72
				c-0.59,0-1.09-0.25-1.5-0.74c-0.42-0.49-0.62-1.08-0.62-1.76C267.73,265.28,267.93,264.69,268.35,264.2z M274.55,279.29
				c0,0.43-0.13,0.74-0.4,0.93c-0.27,0.2-0.53,0.2-0.78,0c-0.25-0.19-0.38-0.5-0.38-0.93c0-2.36,0-4.72,0-7.08c-0.17,0-0.33,0-0.5,0
				c0,6.37,0,12.74,0,19.12c0,0.82-0.35,1.23-1.03,1.25c-0.69,0.01-1.03-0.39-1.03-1.21c0-3.79,0-7.57,0-11.36
				c-0.35,0-0.7,0-1.05,0.01c0,3.79,0,7.58,0,11.37c0,0.82-0.34,1.24-1.03,1.25c-0.68,0.01-1.03-0.39-1.03-1.22c0-6.4,0-12.8,0-19.2
				c-0.17,0-0.33,0-0.5,0c0,2.39,0,4.78,0,7.17c0,0.39-0.12,0.66-0.37,0.82c-0.25,0.16-0.51,0.16-0.78,0
				c-0.27-0.16-0.4-0.43-0.4-0.82c0-2.49,0-4.98,0-7.48c0-0.83,0.24-1.49,0.72-2c0.49-0.51,1.11-0.76,1.88-0.75
				c1.35,0.01,2.71,0.01,4.06,0.02c0.81,0,1.44,0.27,1.91,0.79c0.47,0.53,0.7,1.2,0.7,2.02
				C274.55,274.42,274.55,276.85,274.55,279.29z"/>
		</g>
	</g>
	<line class="st4" x1="412.9" y1="542.04" x2="439.84" y2="542.04"/>
	<line class="st4" x1="449.5" y1="542.04" x2="456.26" y2="542.04"/>
	<line class="st4" x1="449.57" y1="132.82" x2="422.64" y2="132.82"/>
	<line class="st4" x1="412.98" y1="132.82" x2="406.21" y2="132.82"/>
	<line class="st4" x1="229.16" y1="415.28" x2="235.07" y2="415.28"/>
	<line class="st4" x1="244.73" y1="415.28" x2="251.49" y2="415.28"/>
	<line class="st4" x1="525.43" y1="412.47" x2="531.35" y2="412.47"/>
	<line class="st4" x1="577.69" y1="460.64" x2="584.46" y2="460.64"/>
	<line class="st4" x1="198.68" y1="106.21" x2="204.6" y2="106.21"/>
	<line class="st4" x1="262.8" y1="152.92" x2="269.57" y2="152.92"/>
	<line class="st4" x1="531.58" y1="85.16" x2="537.5" y2="85.16"/>
	<line class="st4" x1="547.16" y1="85.16" x2="553.92" y2="85.16"/>
	<g id="XMLID_1326_">
		<g id="XMLID_1327_">
			<path id="XMLID_1386_" class="st1" d="M433.38,479.98c-14.99,0-29.32-6.06-39.84-16.98c-1.96-2.03-3.78-4.24-5.4-6.55
				l-27.3-33.15c-2.28-2.77-3.34-6.26-2.99-9.85c0.35-3.59,2.06-6.82,4.83-9.09c2.77-2.28,6.26-3.34,9.85-2.99
				c3.59,0.35,6.82,2.06,9.09,4.83l6.43,7.81l-31.7-87.08c-1.2-3.3-1.04-6.88,0.45-10.08c1.49-3.2,4.13-5.63,7.43-6.83
				c3.3-1.2,6.88-1.04,10.08,0.45c3.2,1.49,5.63,4.13,6.83,7.43l14.15,38.87c0.03-0.07,0.06-0.14,0.1-0.22
				c1.49-3.2,4.13-5.63,7.43-6.83c3.3-1.2,6.88-1.04,10.08,0.45c3.2,1.49,5.63,4.13,6.83,7.43l0.01,0.04
				c1.41-3.16,4.04-5.76,7.53-7.03c6.29-2.29,13.22,0.52,16.22,6.32c1.13-2.4,3.15-4.17,5.92-5.18l0.95-0.35
				c0.06-0.02,0.12-0.04,0.19-0.06c11.43-3.04,18.72,9.75,22.82,21.03l12.11,33.27c3.04,8.36,4.04,17.4,2.88,26.16
				c-1.12,8.47-4.25,16.71-9.04,23.81c-0.17,0.25-0.34,0.5-0.51,0.75c-4.68,6.7-10.64,12.16-17.71,16.22
				c-2.77,1.59-5.7,2.96-8.72,4.05c-4.73,1.72-9.66,2.79-14.65,3.18C436.28,479.92,434.82,479.98,433.38,479.98z"/>
		</g>
	</g>
	<circle class="st4" cx="335.3" cy="85.13" r="4.34"/>
	<circle class="st3" cx="610.1" cy="143.6" r="4.34"/>
	<circle class="st3" cx="189.66" cy="464.98" r="4.34"/>
	<circle class="st4" cx="304.68" cy="586.72" r="5.96"/>
</g>
<g id="Warstwa_3">
</g>
<g id="Warstwa_2">
</g>
</svg>
