<?xml version="1.0" encoding="utf-8"?>
<!-- Generator: Adobe Illustrator 24.2.3, SVG Export Plug-In . SVG Version: 6.00 Build 0)  -->
<svg version="1.1" xmlns="http://www.w3.org/2000/svg" xmlns:xlink="http://www.w3.org/1999/xlink" x="0px" y="0px"
	 viewBox="0 0 800 600" style="enable-background:new 0 0 800 600;" xml:space="preserve">
<style type="text/css">
	.st0{fill:#D91C5C;}
	.st1{fill:none;stroke:#808184;stroke-width:3.7782;stroke-linecap:round;stroke-miterlimit:10;}
	.st2{fill:none;stroke:#FFFFFF;stroke-width:3.7782;stroke-linecap:round;stroke-miterlimit:10;}
	.st3{fill:#D0D2D3;}
	.st4{fill:#FFFFFF;}
	.st5{fill:none;stroke:#808184;stroke-width:5.3406;stroke-linecap:round;stroke-miterlimit:10;}
	.st6{fill:none;stroke:#D0D2D3;stroke-width:2.1201;stroke-linecap:round;stroke-miterlimit:10;}
	.st7{fill:none;stroke:#808184;stroke-width:2.1201;stroke-linecap:round;stroke-miterlimit:10;}
	.st8{fill:#808184;}
	.st9{display:none;fill:none;stroke:#D0D2D3;stroke-width:3.7782;stroke-linecap:round;stroke-miterlimit:10;}
	.st10{display:none;fill:none;stroke:#D0D2D3;stroke-width:5.1888;stroke-linecap:round;stroke-miterlimit:10;}
	.st11{display:none;fill:#D0D2D3;}
	.st12{fill:none;stroke:#D0D2D3;stroke-width:3.7782;stroke-linecap:round;stroke-miterlimit:10;}
</style>
<g id="Warstwa_5">
</g>
<g id="Warstwa_4">
	<path class="st0" d="M453.25,374.35h-97.89c-9.06,0-16.4-7.34-16.4-16.4v-31.6c0-9.06,7.34-16.4,16.4-16.4h97.89
		c9.06,0,16.4,7.34,16.4,16.4v31.6C469.65,367.01,462.31,374.35,453.25,374.35z"/>
	<polyline class="st1" points="268.42,507.35 268.42,503.28 283.51,488.19 350.92,466.53 351.94,439.68 356.58,441.8 363.11,417.6 	
		"/>
	<polygon class="st1" points="404.45,481.55 391.73,493.74 350.92,466.53 351.94,439.68 404.45,465.3 	"/>
	<path class="st1" d="M336.91,369.01h-19.44c-4.13,0-7.48-3.35-7.48-7.48v-38.62c0-4.13,3.35-7.48,7.48-7.48h19.44V369.01z"/>
	<path class="st1" d="M370.77,241.16c-22.5,2.61-39.98,21.99-39.98,45.52v28.76"/>
	<path class="st1" d="M478.25,315.44v-28.76c0-14.13-6.31-26.77-16.23-35.18"/>
	<path class="st1" d="M355.28,253.99c-11.06,7.21-18.37,19.69-18.37,33.87c0,0,0,73.56,0,88.93c0,15.37,22.41,37.1,22.41,37.1
		l9.35,10c9.63,10.3,22.57,15.55,35.57,15.72h0.14c13-0.18,25.94-5.42,35.57-15.72l9.35-10c0,0,22.41-21.73,22.41-37.1
		c0-15.37,0-88.93,0-88.93c0-3.95-1.68-11.01-2.73-14.62"/>
	<path class="st1" d="M391.79,397.75l0.62,0.66c7.27,7.68,19.59,7.37,26.47-0.66v0"/>
	<polyline class="st2" points="364,316.19 377.69,325.2 355.69,356.82 	"/>
	<line class="st1" x1="323.45" y1="343.36" x2="323.45" y2="369.01"/>
	<polyline class="st1" points="540.27,507.35 540.27,503.28 525.18,488.19 457.77,466.53 456.75,439.68 452.11,441.8 445.58,417.6 	
		"/>
	<polygon class="st1" points="404.24,481.55 416.96,493.74 457.77,466.53 456.75,439.68 404.24,465.3 	"/>
	<path class="st1" d="M471.78,369.01h19.44c4.13,0,7.48-3.35,7.48-7.48v-38.62c0-4.13-3.35-7.48-7.48-7.48h-19.44V369.01z"/>
	<polyline class="st2" points="444.69,316.19 431,325.2 453,356.82 	"/>
	<line class="st1" x1="485.24" y1="343.36" x2="485.24" y2="369.01"/>
	<path class="st1" d="M462.07,376.79H346.55c-5.32,0-9.64-4.32-9.64-9.64v-49.98c0-5.32,4.32-9.64,9.64-9.64h115.52
		c5.32,0,9.64,4.32,9.64,9.64v49.98C471.71,372.47,467.39,376.79,462.07,376.79z"/>
	<path class="st1" d="M336.91,300.82c0,0,1.65-21.55,17.2-26.68c15.55-5.12,24.91,4.95,53.71,1.24c28.8-3.71,26.68-10.07,37.81-5.3
		s22.85,19.61,26.09,35.33"/>
	<path class="st1" d="M355.79,253.65c0,0,14.22-14.84,32.95-20.32c2.29-0.67,8.45-2.1,14.4-3.37c5.36-1.15,10.54-2.17,12.55-2.4
		c13.14-1.49,26.1-0.47,33.99,6.82c13.6,12.56,18.99,38.09,19.29,38.87"/>
	<path class="st1" d="M367.41,264.54c0,0,25.91-12.37,29.09-19.32"/>
	<path class="st1" d="M394.03,271.49c0,0,30.39-17.67,32.86-27.56"/>
	<path class="st1" d="M448.21,239.92c0,0-0.01,15.17-11.84,23.3"/>
	<line class="st1" x1="399.49" y1="175.86" x2="400.07" y2="206.06"/>
	<line class="st1" x1="499.33" y1="385.24" x2="551.46" y2="414.38"/>
	<line class="st1" x1="225.17" y1="416.51" x2="294.23" y2="381.05"/>
	<path class="st1" d="M584.19,393.91c-20.1,0-36.4,16.29-36.4,36.4c0,20.11,16.29,36.41,36.4,36.41s36.4-16.29,36.4-36.41
		C620.59,410.2,604.29,393.91,584.19,393.91z"/>
	<g>
		<path class="st1" d="M702.17,125.9c-32.77,0-59.34,26.57-59.34,59.33c0,32.77,26.57,59.33,59.34,59.33S761.5,218,761.5,185.23
			C761.5,152.46,734.94,125.9,702.17,125.9z"/>
	</g>
	<g>
		<path class="st1" d="M65.83,321.21c-15.61,0-28.26,12.65-28.26,28.26c0,15.62,12.65,28.27,28.26,28.27
			c15.62,0,28.26-12.65,28.26-28.27C94.09,333.86,81.45,321.21,65.83,321.21z"/>
	</g>
	<g>
		<path class="st3" d="M73.44,365.82H47.42c0.12-8.02,4.55-14.67,10.43-16.21c-3.41-1.09-5.89-4.26-5.89-8.02
			c0-4.67,3.8-8.46,8.47-8.46c4.44,0,8.04,3.43,8.39,7.78c1.21-1.6,3.11-2.67,5.27-2.67c3.65,0,6.61,2.96,6.61,6.61
			c0,2.93-1.94,5.4-4.59,6.25c4.58,1.19,8.04,6.38,8.14,12.63h-11C73.33,364.41,73.42,365.11,73.44,365.82z"/>
		<path class="st4" d="M67.95,346.02c-1.05,1.69-2.67,2.97-4.61,3.59c2.06,0.54,3.91,1.77,5.5,3.41c1.07-0.93,2.28-1.58,3.57-1.92
			C70.13,350.35,68.38,348.42,67.95,346.02z"/>
	</g>
	<path class="st1" d="M718.92,271.01c-24.02,0-43.48,19.47-43.48,43.49c0,24.01,19.46,43.48,43.48,43.48
		c24.02,0,43.48-19.47,43.48-43.48C762.41,290.49,742.94,271.01,718.92,271.01z"/>
	<g>
		<path class="st1" d="M157.59,136.49c-32.77,0-59.33,26.57-59.33,59.33c0,32.77,26.56,59.33,59.33,59.33s59.33-26.56,59.33-59.33
			C216.93,163.06,190.37,136.49,157.59,136.49z"/>
	</g>
	<path class="st1" d="M169.71,378.27c-32.77,0-59.34,26.58-59.34,59.34c0,32.77,26.57,59.33,59.34,59.33
		c32.77,0,59.33-26.56,59.33-59.33C229.04,404.84,202.47,378.27,169.71,378.27z"/>
	<line class="st1" x1="81.57" y1="372.95" x2="121.81" y2="402.58"/>
	<line class="st1" x1="505.89" y1="272.49" x2="651.36" y2="215.9"/>
	<line class="st1" x1="710.83" y1="244.56" x2="714.88" y2="270.67"/>
	<line class="st1" x1="207.1" y1="228.54" x2="302.61" y2="271.49"/>
	<path class="st5" d="M400.26,69.1c-29.77,0-53.89,24.14-53.89,53.9c0,29.77,24.13,53.89,53.89,53.89c29.77,0,53.9-24.12,53.9-53.89
		C454.15,93.24,430.03,69.1,400.26,69.1z"/>
	<polygon class="st3" points="183.05,231.02 132.14,231.02 132.14,152.81 169.38,152.81 169.38,166.31 183.05,166.31 	"/>
	<line class="st6" x1="169.1" y1="153.84" x2="182.09" y2="166.78"/>
	<line class="st7" x1="152.87" y1="174.28" x2="178.06" y2="174.28"/>
	<line class="st7" x1="152.87" y1="192.35" x2="178.06" y2="192.35"/>
	<line class="st7" x1="152.87" y1="210.42" x2="178.06" y2="210.42"/>
	<circle class="st7" cx="143.05" cy="210.42" r="2.56"/>
	<polyline class="st7" points="139.17,174.55 141.58,176.96 146.94,171.6 	"/>
	<polyline class="st7" points="139.17,192.18 141.58,194.6 146.94,189.24 	"/>
	<g>
		<path class="st0" d="M665.56,191.1l-1.56,6.42h-7.7l8.07-27.75h9.88l8.28,27.75h-8.03l-1.77-6.42H665.56z M671.7,185.63
			l-1.28-4.98c-0.41-1.56-0.95-3.83-1.36-5.48h-0.08c-0.41,1.65-0.82,3.91-1.23,5.48l-1.19,4.98H671.7z"/>
		<path class="st8" d="M694.21,170.19c1.69-0.33,5.35-0.62,8.77-0.62c3.95,0,6.34,0.29,8.48,1.36c2.18,1.03,3.75,3,3.75,5.72
			c0,2.31-1.28,4.57-4.53,5.8v0.08c3.38,0.95,5.43,3.46,5.43,6.75c0,2.63-1.28,4.69-3.13,6.09c-2.06,1.56-5.52,2.47-11.45,2.47
			c-3.38,0-5.85-0.21-7.33-0.49V170.19z M701.58,180.44h1.48c3.17,0,4.69-1.11,4.69-2.88c0-1.61-1.24-2.63-3.75-2.63
			c-1.24,0-1.93,0.08-2.43,0.17V180.44z M701.58,192.34c0.54,0.08,1.19,0.08,2.14,0.08c2.47,0,4.57-0.99,4.57-3.46
			c0-2.35-2.14-3.25-4.94-3.25h-1.77V192.34z"/>
		<path class="st3" d="M749.08,196.78c-1.03,0.54-3.66,1.15-6.96,1.15c-10.37,0-14.94-6.46-14.94-13.83
			c0-9.76,7.16-14.74,15.44-14.74c3.17,0,5.76,0.62,6.92,1.19l-1.44,5.89c-1.19-0.49-2.92-0.99-5.15-0.99
			c-4.24,0-7.95,2.51-7.95,8.15c0,5.02,3,8.15,8.11,8.15c1.77,0,3.79-0.33,4.94-0.78L749.08,196.78z"/>
	</g>
	<g>
		<path class="st0" d="M406,98.42c-2.64-0.8-6.95-0.8-9.59,0l-34.84,10.57c-2.64,0.8-2.64,2.11,0,2.91l34.84,10.57
			c2.64,0.8,6.95,0.8,9.59,0l34.84-10.57c2.64-0.8,2.64-2.11,0-2.91L406,98.42z"/>
		<path class="st0" d="M397.12,128.71l-21.33-6.65v18.97c0,0,5.13,6.61,25.42,6.61c20.29,0,25.42-6.61,25.42-6.61v-18.97
			l-21.34,6.65C402.63,129.54,399.78,129.54,397.12,128.71z"/>
		<path class="st0" d="M365.25,131.59L365.25,131.59l0-14.11l-2.82-1v15.11h0l-1.71,3.16c-0.28,0.52-0.43,1.1-0.43,1.69v0.2
			c0,1.96,1.59,3.55,3.55,3.55l0,0c1.96,0,3.55-1.59,3.55-3.55v-0.2c0-0.59-0.15-1.17-0.43-1.69L365.25,131.59z"/>
	</g>
	<line class="st9" x1="440.5" y1="576.02" x2="472.22" y2="576.02"/>
	<line class="st9" x1="483.6" y1="576.02" x2="491.57" y2="576.02"/>
	<line class="st9" x1="525.76" y1="177.83" x2="494.03" y2="177.83"/>
	<line class="st9" x1="482.66" y1="177.83" x2="474.69" y2="177.83"/>
	<line class="st9" x1="190.7" y1="536.91" x2="197.67" y2="536.91"/>
	<line class="st9" x1="209.04" y1="536.91" x2="217.01" y2="536.91"/>
	<line class="st9" x1="669.28" y1="417.6" x2="676.25" y2="417.6"/>
	<line class="st9" x1="634.59" y1="536.91" x2="642.56" y2="536.91"/>
	<line class="st10" x1="163.3" y1="99.73" x2="170.27" y2="99.73"/>
	<line class="st9" x1="263.7" y1="174.46" x2="271.67" y2="174.46"/>
	<line class="st9" x1="580.28" y1="94.65" x2="587.25" y2="94.65"/>
	<line class="st9" x1="598.63" y1="94.65" x2="606.59" y2="94.65"/>
	<circle class="st9" cx="331.06" cy="79.59" r="5.11"/>
	<circle class="st11" cx="599.69" cy="292.56" r="5.11"/>
	<circle class="st11" cx="215.97" cy="327.99" r="5.11"/>
	<path class="st3" d="M702.61,298.18h32.63c0.93,0,1.81,0.26,2.6,0.69l-18.92,16.54l-18.89-16.54
		C700.8,298.45,701.67,298.18,702.61,298.18z"/>
	<path class="st3" d="M697.17,325.37v-21.75c0-1.06,0.32-2.04,0.85-2.88l13.58,11.88l-13.72,15.38
		C697.44,327.21,697.17,326.33,697.17,325.37z"/>
	<path class="st3" d="M735.24,330.81h-32.63c-1.05,0-2.02-0.3-2.87-0.83l13.91-15.57l4.38,3.83c0.25,0.22,0.56,0.33,0.89,0.33
		c0.32,0,0.64-0.11,0.9-0.33l4.38-3.83l13.91,15.57C737.28,330.51,736.31,330.81,735.24,330.81z"/>
	<path class="st3" d="M740.68,325.37c0,0.97-0.27,1.84-0.7,2.63l-13.74-15.37l13.6-11.89c0.51,0.84,0.83,1.82,0.83,2.88V325.37z"/>
	<g>
		<path class="st0" d="M163.98,463.24c-0.18,0.46-0.53,0.84-0.96,1.05c-0.46,0.21-0.97,0.23-1.43,0.06l-1.56-0.57
			c-0.65,0.93-1.44,1.8-2.35,2.53l0.69,1.5c0.44,0.94,0.03,2.06-0.91,2.5l-1.91,0.87c-0.93,0.43-2.06,0.02-2.48-0.92l-0.69-1.51
			c-1.15,0.22-2.31,0.26-3.45,0.14l-0.58,1.56c-0.16,0.46-0.52,0.85-0.96,1.05c-0.45,0.22-0.97,0.23-1.43,0.06l-1.98-0.72
			c-0.46-0.18-0.85-0.52-1.05-0.98c-0.22-0.45-0.24-0.96-0.06-1.43l0.56-1.56c-0.93-0.64-1.78-1.43-2.52-2.33l-1.5,0.69
			c-0.94,0.42-2.05,0.02-2.49-0.93l-0.88-1.91c-0.44-0.93-0.02-2.06,0.91-2.48l1.52-0.69c-0.21-1.15-0.26-2.31-0.13-3.44l-1.56-0.58
			c-0.46-0.17-0.84-0.52-1.05-0.97c-0.2-0.46-0.22-0.97-0.06-1.43l0.72-1.97c0.34-0.94,1.48-1.47,2.42-1.12l1.54,0.58
			c0.64-0.93,1.44-1.8,2.34-2.54l-0.69-1.5c-0.43-0.93-0.01-2.05,0.93-2.49l1.9-0.87c0.93-0.43,2.05-0.02,2.48,0.92l0.7,1.5
			c1.14-0.21,2.3-0.26,3.43-0.14l0.57-1.55c0.36-0.94,1.48-1.45,2.42-1.11l1.97,0.73c0.96,0.35,1.46,1.44,1.11,2.41l-0.57,1.55
			c0.93,0.65,1.79,1.43,2.53,2.34l1.5-0.69c0.94-0.43,2.05-0.02,2.48,0.93l0.89,1.9c0.43,0.94,0.02,2.07-0.93,2.49l-1.51,0.69
			c0.22,1.15,0.26,2.31,0.14,3.44l1.56,0.57c0.97,0.35,1.46,1.44,1.11,2.4L163.98,463.24z"/>
		<path class="st3" d="M203.66,435.28l-1.23,3.31c-0.28,0.79-0.87,1.4-1.64,1.77c-0.76,0.35-1.62,0.38-2.39,0.1l-2.61-0.98
			c-1.09,1.59-2.41,3.03-3.94,4.26l1.15,2.53c0.74,1.59,0.05,3.47-1.53,4.19l-3.21,1.48c-1.58,0.73-3.45,0.02-4.18-1.55l-1.15-2.52
			c-1.95,0.36-3.9,0.43-5.8,0.22l-0.96,2.61c-0.3,0.79-0.88,1.43-1.64,1.77c-0.76,0.36-1.62,0.39-2.42,0.1l-3.31-1.22
			c-0.78-0.3-1.41-0.87-1.76-1.64c-0.35-0.76-0.38-1.62-0.09-2.42l0.97-2.6c-1.58-1.09-3.02-2.39-4.26-3.93l-2.52,1.16
			c-1.58,0.72-3.47,0.03-4.18-1.54l-1.48-3.22c-0.72-1.57-0.03-3.44,1.56-4.18l2.53-1.16c-0.36-1.93-0.43-3.88-0.22-5.79l-2.63-0.97
			c-0.78-0.29-1.41-0.87-1.76-1.64c-0.36-0.77-0.39-1.61-0.1-2.4l1.22-3.32c0.58-1.57,2.47-2.44,4.05-1.86l2.61,0.98
			c1.08-1.6,2.4-3.03,3.93-4.27l-1.17-2.53c-0.71-1.57-0.03-3.46,1.54-4.18l3.21-1.47c1.58-0.73,3.46-0.05,4.17,1.54l1.19,2.52
			c1.93-0.36,3.87-0.43,5.78-0.22l0.97-2.62c0.57-1.58,2.47-2.45,4.05-1.87l3.3,1.22c1.64,0.61,2.47,2.42,1.86,4.05l-0.96,2.62
			c1.59,1.09,3.01,2.39,4.26,3.94l2.54-1.17c1.58-0.73,3.44-0.02,4.18,1.55l1.46,3.2c0.74,1.58,0.04,3.46-1.54,4.18l-2.52,1.16
			c0.36,1.94,0.43,3.89,0.21,5.8l2.62,0.96C203.43,431.84,204.26,433.66,203.66,435.28z"/>
		<path class="st4" d="M179.24,415.68c-1.8,0-3.55,0.39-5.21,1.15c-6.24,2.88-8.98,10.3-6.12,16.53c2.04,4.42,6.48,7.25,11.35,7.25
			c1.79,0,3.54-0.38,5.21-1.13c6.24-2.88,8.97-10.3,6.1-16.54C188.55,418.53,184.1,415.68,179.24,415.68z"/>
		<path class="st4" d="M150.19,449.62c-1.08,0-2.12,0.23-3.11,0.68c-3.7,1.71-5.35,6.12-3.62,9.84c1.19,2.62,3.84,4.32,6.74,4.32
			c1.06,0,2.1-0.23,3.09-0.69c3.71-1.72,5.33-6.12,3.63-9.84C155.71,451.31,153.07,449.62,150.19,449.62z"/>
	</g>
	<path class="st8" d="M573.96,434.56c-0.98,0-1.8,0.8-1.8,1.79c0,0.99,0.81,1.79,1.8,1.79c0.99,0,1.8-0.8,1.8-1.79
		C575.76,435.36,574.95,434.56,573.96,434.56z"/>
	<ellipse class="st8" cx="581.54" cy="436.35" rx="1.79" ry="1.79"/>
	<path class="st8" d="M566.39,434.56c-0.99,0-1.79,0.8-1.79,1.79c0,0.99,0.8,1.79,1.79,1.79c0.99,0,1.8-0.8,1.8-1.79
		C568.19,435.36,567.38,434.56,566.39,434.56z"/>
	<path class="st8" d="M592.12,412.18c-8.1,0-14.67,4.54-14.81,10.16c2.02,0.34,3.88,0.97,5.51,1.84c-0.02-0.11-0.07-0.22-0.07-0.34
		c0-0.99,0.81-1.79,1.81-1.79c0.97,0,1.79,0.8,1.79,1.79c0,0.85-0.6,1.52-1.38,1.71c2.42,1.87,3.94,4.36,4.19,7.11
		c0.96,0.14,1.95,0.21,2.97,0.21c0.9,0,1.84-0.06,2.83-0.19l2.07-0.29l0.82,1.92c0.18,0.44,0.32,0.89,0.43,1.33
		c0.16-0.64,0.2-1.26,0.19-1.84l-0.06-1.83l1.66-0.75c4.32-1.95,6.89-5.2,6.89-8.7C606.96,416.81,600.32,412.18,592.12,412.18z
		 M592.13,425.63c-0.99,0-1.8-0.8-1.8-1.79s0.81-1.79,1.8-1.79c0.99,0,1.79,0.8,1.79,1.79S593.11,425.63,592.13,425.63z
		 M599.69,425.63c-0.98,0-1.79-0.8-1.79-1.79s0.81-1.79,1.79-1.79c0.99,0,1.78,0.8,1.78,1.79S600.68,425.63,599.69,425.63z"/>
	<path class="st12" d="M601.2,433.72c0.06,2.22-0.56,7.18-7.03,9.19c0,0,2.57-4.2,1.15-7.52c-1.03,0.14-2.11,0.23-3.19,0.23
		c-1.07,0-2.1-0.1-3.12-0.24c-1.24,5.36-7.46,9.46-15.04,9.46c-0.95,0-1.88-0.07-2.78-0.2c-1.23,2.9,0.99,6.55,0.99,6.55
		c-5.62-1.74-6.16-6.07-6.1-7.99c-4.44-2-7.41-5.61-7.41-9.75c0-6.31,6.85-11.4,15.3-11.4c0.21,0,0.41,0.04,0.63,0.05
		c0.31-7.03,8.03-12.68,17.53-12.68c9.71,0,17.59,5.87,17.59,13.1C609.71,427.29,606.29,431.43,601.2,433.72z"/>
</g>
<g id="Warstwa_3">
</g>
<g id="Warstwa_2">
</g>
</svg>
