<?xml version="1.0" encoding="UTF-8"?>
<!DOCTYPE svg PUBLIC "-//W3C//DTD SVG 1.1//EN" "http://www.w3.org/Graphics/SVG/1.1/DTD/svg11.dtd">
<svg version="1.2" width="437.4mm" height="111.5mm" viewBox="0 0 43740 11150" preserveAspectRatio="xMidYMid" fill-rule="evenodd" stroke-width="28.222" stroke-linejoin="round" xmlns="http://www.w3.org/2000/svg" xmlns:ooo="http://xml.openoffice.org/svg/export" xmlns:xlink="http://www.w3.org/1999/xlink" xmlns:presentation="http://sun.com/xmlns/staroffice/presentation" xmlns:smil="http://www.w3.org/2001/SMIL20/" xmlns:anim="urn:oasis:names:tc:opendocument:xmlns:animation:1.0" xml:space="preserve">
 <defs class="ClipPathGroup">
  <clipPath id="presentation_clip_path" clipPathUnits="userSpaceOnUse">
   <rect x="0" y="0" width="43740" height="11150"/>
  </clipPath>
  <clipPath id="presentation_clip_path_shrink" clipPathUnits="userSpaceOnUse">
   <rect x="43" y="11" width="43653" height="11128"/>
  </clipPath>
 </defs>
 <defs class="TextShapeIndex">
  <g ooo:slide="id1" ooo:id-list="id3 id4 id5 id6 id7 id8 id9 id10 id11 id12 id13 id14 id15 id16 id17 id18 id19 id20 id21 id22 id23 id24 id25 id26 id27 id28"/>
 </defs>
 <defs class="EmbeddedBulletChars">
  <g id="bullet-char-template-57356" transform="scale(0.00048828125,-0.00048828125)">
   <path d="M 580,1141 L 1163,571 580,0 -4,571 580,1141 Z"/>
  </g>
  <g id="bullet-char-template-57354" transform="scale(0.00048828125,-0.00048828125)">
   <path d="M 8,1128 L 1137,1128 1137,0 8,0 8,1128 Z"/>
  </g>
  <g id="bullet-char-template-10146" transform="scale(0.00048828125,-0.00048828125)">
   <path d="M 174,0 L 602,739 174,1481 1456,739 174,0 Z M 1358,739 L 309,1346 659,739 1358,739 Z"/>
  </g>
  <g id="bullet-char-template-10132" transform="scale(0.00048828125,-0.00048828125)">
   <path d="M 2015,739 L 1276,0 717,0 1260,543 174,543 174,936 1260,936 717,1481 1274,1481 2015,739 Z"/>
  </g>
  <g id="bullet-char-template-10007" transform="scale(0.00048828125,-0.00048828125)">
   <path d="M 0,-2 C -7,14 -16,27 -25,37 L 356,567 C 262,823 215,952 215,954 215,979 228,992 255,992 264,992 276,990 289,987 310,991 331,999 354,1012 L 381,999 492,748 772,1049 836,1024 860,1049 C 881,1039 901,1025 922,1006 886,937 835,863 770,784 769,783 710,716 594,584 L 774,223 C 774,196 753,168 711,139 L 727,119 C 717,90 699,76 672,76 641,76 570,178 457,381 L 164,-76 C 142,-110 111,-127 72,-127 30,-127 9,-110 8,-76 1,-67 -2,-52 -2,-32 -2,-23 -1,-13 0,-2 Z"/>
  </g>
  <g id="bullet-char-template-10004" transform="scale(0.00048828125,-0.00048828125)">
   <path d="M 285,-33 C 182,-33 111,30 74,156 52,228 41,333 41,471 41,549 55,616 82,672 116,743 169,778 240,778 293,778 328,747 346,684 L 369,508 C 377,444 397,411 428,410 L 1163,1116 C 1174,1127 1196,1133 1229,1133 1271,1133 1292,1118 1292,1087 L 1292,965 C 1292,929 1282,901 1262,881 L 442,47 C 390,-6 338,-33 285,-33 Z"/>
  </g>
  <g id="bullet-char-template-9679" transform="scale(0.00048828125,-0.00048828125)">
   <path d="M 813,0 C 632,0 489,54 383,161 276,268 223,411 223,592 223,773 276,916 383,1023 489,1130 632,1184 813,1184 992,1184 1136,1130 1245,1023 1353,916 1407,772 1407,592 1407,412 1353,268 1245,161 1136,54 992,0 813,0 Z"/>
  </g>
  <g id="bullet-char-template-8226" transform="scale(0.00048828125,-0.00048828125)">
   <path d="M 346,457 C 273,457 209,483 155,535 101,586 74,649 74,723 74,796 101,859 155,911 209,963 273,989 346,989 419,989 480,963 531,910 582,859 608,796 608,723 608,648 583,586 532,535 482,483 420,457 346,457 Z"/>
  </g>
  <g id="bullet-char-template-8211" transform="scale(0.00048828125,-0.00048828125)">
   <path d="M -4,459 L 1135,459 1135,606 -4,606 -4,459 Z"/>
  </g>
  <g id="bullet-char-template-61548" transform="scale(0.00048828125,-0.00048828125)">
   <path d="M 173,740 C 173,903 231,1043 346,1159 462,1274 601,1332 765,1332 928,1332 1067,1274 1183,1159 1299,1043 1357,903 1357,740 1357,577 1299,437 1183,322 1067,206 928,148 765,148 601,148 462,206 346,322 231,437 173,577 173,740 Z"/>
  </g>
 </defs>
 <defs class="TextEmbeddedBitmaps"/>
 <g>
  <g id="id2" class="Master_Slide">
   <g id="bg-id2" class="Background"/>
   <g id="bo-id2" class="BackgroundObjects"/>
  </g>
 </g>
 <g class="SlideGroup">
  <g>
   <g id="container-id1">
    <g id="id1" class="Slide" clip-path="url(#presentation_clip_path)">
     <g class="Page">
      <g class="Group">
       <g class="com.sun.star.drawing.ClosedBezierShape">
        <g id="id3">
         <rect class="BoundingBox" stroke="none" fill="none" x="2" y="101" width="3887" height="6849"/>
         <path fill="rgb(128,129,132)" stroke="none" d="M 766,6656 L 3467,6656 2282,3407 2831,3094 C 3281,2846 3506,2452 3506,1911 3506,900 2736,394 1197,394 L 297,394 297,6949 3,6949 3,101 1197,101 C 2057,101 2707,259 3144,575 3581,892 3800,1337 3800,1911 3800,2563 3526,3042 2978,3349 L 2645,3534 3888,6949 766,6949 766,6656 Z"/>
        </g>
       </g>
       <g class="com.sun.star.drawing.ClosedBezierShape">
        <g id="id4">
         <rect class="BoundingBox" stroke="none" fill="none" x="5168" y="3" width="4561" height="7045"/>
         <path fill="rgb(128,129,132)" stroke="none" d="M 8270,419 C 8041,337 7766,297 7447,297 7127,297 6853,337 6625,419 6397,501 6192,639 6009,835 5826,1030 5689,1312 5598,1681 5507,2049 5461,2504 5461,3045 L 5461,4004 C 5461,4545 5507,5000 5598,5368 5689,5738 5826,6020 6009,6216 6192,6411 6397,6550 6625,6631 6853,6713 7127,6754 7447,6754 7766,6754 8041,6713 8270,6631 8498,6550 8703,6411 8886,6216 9068,6020 9205,5738 9297,5368 9388,5000 9434,4545 9434,4004 L 9434,3045 C 9434,2504 9388,2049 9297,1681 9205,1312 9068,1030 8886,835 8703,639 8498,501 8270,419 Z M 9189,6308 C 8830,6801 8250,7047 7447,7047 6645,7047 6064,6801 5706,6308 5347,5816 5168,5047 5168,4004 L 5168,3045 C 5168,2002 5347,1234 5706,742 6064,249 6645,3 7447,3 8250,3 8830,249 9189,742 9548,1234 9727,2002 9727,3045 L 9727,4004 C 9727,5047 9548,5816 9189,6308 Z"/>
        </g>
       </g>
       <g class="com.sun.star.drawing.ClosedBezierShape">
        <g id="id5">
         <rect class="BoundingBox" stroke="none" fill="none" x="11447" y="101" width="4170" height="6849"/>
         <path fill="rgb(128,129,132)" stroke="none" d="M 13013,6656 C 13319,6656 13600,6631 13854,6582 14108,6533 14351,6452 14583,6338 14814,6224 14995,6056 15125,5834 15257,5612 15322,5348 15322,5042 15322,4343 14985,3870 14314,3622 L 13727,3407 14274,3094 C 14724,2846 14949,2452 14949,1911 14949,900 14180,394 12641,394 L 11741,394 11741,6656 13013,6656 Z M 13013,6949 L 11448,6949 11448,101 12641,101 C 13502,101 14151,259 14587,575 15024,892 15244,1337 15244,1911 15244,2563 14969,3042 14421,3349 15218,3649 15616,4213 15616,5042 15616,5629 15400,6093 14969,6436 14539,6778 13886,6949 13013,6949 Z"/>
        </g>
       </g>
       <g class="com.sun.star.drawing.ClosedBezierShape">
        <g id="id6">
         <rect class="BoundingBox" stroke="none" fill="none" x="16896" y="3" width="4561" height="7045"/>
         <path fill="rgb(128,129,132)" stroke="none" d="M 19998,419 C 19769,337 19495,297 19176,297 18856,297 18583,337 18354,419 18126,501 17921,639 17738,835 17555,1030 17419,1312 17327,1681 17236,2049 17190,2504 17190,3045 L 17190,4004 C 17190,4545 17236,5000 17327,5368 17419,5738 17555,6020 17738,6216 17921,6411 18126,6550 18354,6631 18583,6713 18856,6754 19176,6754 19495,6754 19769,6713 19998,6631 20226,6550 20431,6411 20614,6216 20796,6020 20933,5738 21025,5368 21116,5000 21162,4545 21162,4004 L 21162,3045 C 21162,2504 21116,2049 21025,1681 20933,1312 20796,1030 20614,835 20431,639 20226,501 19998,419 Z M 20917,6308 C 20558,6801 19978,7047 19176,7047 18374,7047 17793,6801 17435,6308 17076,5816 16896,5047 16896,4004 L 16896,3045 C 16896,2002 17076,1234 17435,742 17793,249 18374,3 19176,3 19978,3 20558,249 20917,742 21276,1234 21455,2002 21455,3045 L 21455,4004 C 21455,5047 21276,5816 20917,6308 Z"/>
        </g>
       </g>
       <g class="com.sun.star.drawing.PolyPolygonShape">
        <g id="id7">
         <rect class="BoundingBox" stroke="none" fill="none" x="22501" y="101" width="4629" height="6849"/>
         <path fill="rgb(208,210,211)" stroke="none" d="M 26815,101 L 23528,3368 27129,6949 26708,6949 23107,3368 26394,101 26815,101 Z M 22794,6949 L 22501,6949 22501,101 22794,101 22794,6949 Z"/>
        </g>
       </g>
       <g class="com.sun.star.drawing.ClosedBezierShape">
        <g id="id8">
         <rect class="BoundingBox" stroke="none" fill="none" x="27793" y="3" width="4560" height="7045"/>
         <path fill="rgb(208,210,211)" stroke="none" d="M 30894,419 C 30666,337 30391,297 30072,297 29752,297 29478,337 29250,419 29022,501 28816,639 28634,835 28451,1030 28314,1312 28223,1681 28132,2049 28086,2504 28086,3045 L 28086,4004 C 28086,4545 28132,5000 28223,5368 28314,5738 28451,6020 28634,6216 28816,6411 29022,6550 29250,6631 29478,6713 29752,6754 30072,6754 30391,6754 30666,6713 30894,6631 31123,6550 31328,6411 31511,6216 31693,6020 31830,5738 31921,5368 32013,5000 32058,4545 32058,4004 L 32058,3045 C 32058,2504 32013,2049 31921,1681 31830,1312 31693,1030 31511,835 31328,639 31123,501 30894,419 Z M 31814,6308 C 31455,6801 30875,7047 30072,7047 29270,7047 28689,6801 28331,6308 27972,5816 27793,5047 27793,4004 L 27793,3045 C 27793,2002 27972,1234 28331,742 28689,249 29270,3 30072,3 30875,3 31455,249 31814,742 32172,1234 32352,2002 32352,3045 L 32352,4004 C 32352,5047 32172,5816 31814,6308 Z"/>
        </g>
       </g>
       <g class="com.sun.star.drawing.ClosedBezierShape">
        <g id="id9">
         <rect class="BoundingBox" stroke="none" fill="none" x="33975" y="101" width="4169" height="6849"/>
         <path fill="rgb(208,210,211)" stroke="none" d="M 35540,6656 C 35846,6656 36128,6631 36382,6582 36636,6533 36879,6452 37111,6338 37342,6224 37523,6056 37654,5834 37784,5612 37849,5348 37849,5042 37849,4343 37513,3870 36842,3622 L 36255,3407 36803,3094 C 37252,2846 37477,2452 37477,1911 37477,900 36708,394 35168,394 L 34268,394 34268,6656 35540,6656 Z M 35540,6949 L 33975,6949 33975,101 35168,101 C 36029,101 36679,259 37116,575 37552,892 37771,1337 37771,1911 37771,2563 37497,3042 36949,3349 37745,3649 38143,4213 38143,5042 38143,5629 37927,6093 37497,6436 37067,6778 36414,6949 35540,6949 Z"/>
        </g>
       </g>
       <g class="com.sun.star.drawing.PolyPolygonShape">
        <g id="id10">
         <rect class="BoundingBox" stroke="none" fill="none" x="38748" y="91" width="4991" height="6860"/>
         <path fill="rgb(208,210,211)" stroke="none" d="M 39717,6656 L 43317,6656 41243,952 39062,6949 38748,6949 41243,91 43738,6949 39717,6949 39717,6656 Z"/>
        </g>
       </g>
       <g class="com.sun.star.drawing.ClosedBezierShape">
        <g id="id11">
         <rect class="BoundingBox" stroke="none" fill="none" x="144" y="8260" width="379" height="2860"/>
         <path fill="rgb(217,28,92)" stroke="none" d="M 522,11049 C 522,11061 520,11071 514,11080 508,11089 498,11096 483,11101 468,11106 449,11110 425,11114 400,11118 370,11119 333,11119 298,11119 268,11118 243,11114 219,11110 199,11106 184,11101 170,11096 160,11089 154,11080 148,11071 145,11061 145,11049 L 145,8330 C 145,8318 148,8308 155,8299 161,8290 172,8283 188,8278 203,8273 223,8269 247,8265 271,8261 300,8260 333,8260 370,8260 400,8261 425,8265 449,8269 468,8273 483,8278 498,8283 508,8290 514,8299 520,8308 522,8318 522,8330 L 522,11049 Z"/>
        </g>
       </g>
       <g class="com.sun.star.drawing.ClosedBezierShape">
        <g id="id12">
         <rect class="BoundingBox" stroke="none" fill="none" x="1275" y="8273" width="3082" height="2847"/>
         <path fill="rgb(217,28,92)" stroke="none" d="M 4356,11049 C 4356,11061 4353,11071 4347,11080 4341,11089 4330,11096 4315,11101 4300,11106 4281,11110 4257,11114 4234,11118 4204,11119 4165,11119 4131,11119 4101,11118 4076,11114 4051,11110 4032,11106 4017,11101 4003,11096 3993,11089 3987,11080 3981,11071 3978,11061 3978,11049 L 3978,8581 3974,8581 2975,11060 C 2971,11071 2965,11079 2957,11087 2949,11094 2937,11100 2922,11105 2906,11110 2888,11114 2867,11116 2846,11118 2821,11119 2792,11119 2761,11119 2735,11118 2713,11115 2691,11112 2673,11108 2658,11103 2643,11098 2632,11092 2624,11084 2616,11077 2611,11069 2608,11060 L 1653,8581 1651,8581 1651,11049 C 1651,11061 1648,11071 1642,11080 1636,11089 1626,11096 1610,11101 1595,11106 1576,11110 1552,11114 1528,11118 1497,11119 1459,11119 1423,11119 1393,11118 1369,11114 1345,11110 1326,11106 1312,11101 1297,11096 1288,11089 1282,11080 1277,11071 1275,11061 1275,11049 L 1275,8443 C 1275,8382 1291,8338 1323,8312 1356,8286 1392,8273 1432,8273 L 1664,8273 C 1711,8273 1752,8277 1788,8286 1824,8295 1855,8308 1881,8327 1908,8346 1930,8370 1948,8400 1966,8429 1981,8463 1995,8503 L 2805,10554 2816,10554 3658,8509 C 3675,8465 3693,8428 3712,8397 3731,8367 3752,8342 3775,8324 3798,8306 3824,8293 3852,8285 3880,8277 3913,8273 3950,8273 L 4193,8273 C 4215,8273 4237,8276 4257,8283 4277,8289 4294,8299 4308,8313 4322,8327 4333,8345 4342,8366 4351,8387 4356,8413 4356,8443 L 4356,11049 Z"/>
        </g>
       </g>
       <g class="com.sun.star.drawing.ClosedBezierShape">
        <g id="id13">
         <rect class="BoundingBox" stroke="none" fill="none" x="5108" y="8273" width="3082" height="2847"/>
         <path fill="rgb(217,28,92)" stroke="none" d="M 8189,11049 C 8189,11061 8186,11071 8180,11080 8174,11089 8163,11096 8148,11101 8133,11106 8114,11110 8091,11114 8067,11118 8037,11119 7999,11119 7965,11119 7935,11118 7910,11114 7885,11110 7866,11106 7852,11101 7837,11096 7827,11089 7821,11080 7815,11071 7812,11061 7812,11049 L 7812,8581 7808,8581 6809,11060 C 6804,11071 6798,11079 6790,11087 6782,11094 6770,11100 6755,11105 6740,11110 6721,11114 6700,11116 6679,11118 6654,11119 6625,11119 6594,11119 6568,11118 6546,11115 6524,11112 6506,11108 6491,11103 6476,11098 6465,11092 6457,11084 6449,11077 6444,11069 6441,11060 L 5486,8581 5484,8581 5484,11049 C 5484,11061 5481,11071 5475,11080 5469,11089 5459,11096 5444,11101 5428,11106 5409,11110 5385,11114 5361,11118 5330,11119 5292,11119 5256,11119 5226,11118 5202,11114 5178,11110 5159,11106 5145,11101 5130,11096 5121,11089 5115,11080 5110,11071 5108,11061 5108,11049 L 5108,8443 C 5108,8382 5124,8338 5156,8312 5189,8286 5225,8273 5265,8273 L 5497,8273 C 5544,8273 5586,8277 5621,8286 5657,8295 5688,8308 5714,8327 5741,8346 5763,8370 5781,8400 5799,8429 5814,8463 5828,8503 L 6638,10554 6649,10554 7493,8509 C 7509,8465 7527,8428 7546,8397 7565,8367 7586,8342 7609,8324 7632,8306 7658,8293 7686,8285 7714,8277 7747,8273 7784,8273 L 8026,8273 C 8049,8273 8070,8276 8090,8283 8110,8289 8127,8299 8141,8313 8155,8327 8166,8345 8175,8366 8184,8387 8189,8413 8189,8443 L 8189,11049 Z"/>
        </g>
       </g>
       <g class="com.sun.star.drawing.ClosedBezierShape">
        <g id="id14">
         <rect class="BoundingBox" stroke="none" fill="none" x="8941" y="8273" width="1579" height="2834"/>
         <path fill="rgb(217,28,92)" stroke="none" d="M 10518,10951 C 10518,10977 10516,11000 10513,11020 10511,11040 10505,11056 10498,11069 10491,11082 10482,11092 10473,11098 10463,11103 10453,11106 10441,11106 L 9081,11106 C 9047,11106 9015,11095 8986,11072 8956,11050 8941,11010 8941,10953 L 8941,8426 C 8941,8369 8956,8329 8986,8307 9015,8284 9047,8273 9081,8273 L 10426,8273 C 10438,8273 10448,8276 10458,8281 10467,8287 10475,8297 10481,8310 10486,8323 10491,8339 10495,8359 10498,8379 10500,8403 10500,8433 10500,8459 10498,8482 10495,8501 10491,8521 10486,8537 10481,8550 10475,8562 10467,8571 10458,8577 10448,8583 10438,8586 10426,8586 L 9317,8586 9317,9475 10268,9475 C 10280,9475 10291,9478 10300,9484 10309,9491 10318,9500 10324,9512 10331,9523 10335,9539 10338,9560 10341,9580 10343,9604 10343,9632 10343,9658 10341,9681 10338,9700 10335,9719 10331,9734 10324,9746 10318,9758 10309,9766 10300,9771 10291,9776 10280,9779 10268,9779 L 9317,9779 9317,10793 10441,10793 C 10453,10793 10463,10796 10473,10802 10482,10808 10491,10817 10498,10829 10505,10842 10511,10858 10513,10878 10516,10897 10518,10922 10518,10951 Z"/>
        </g>
       </g>
       <g class="com.sun.star.drawing.ClosedBezierShape">
        <g id="id15">
         <rect class="BoundingBox" stroke="none" fill="none" x="11130" y="8273" width="1891" height="2848"/>
         <path fill="rgb(217,28,92)" stroke="none" d="M 12452,9059 C 12452,8948 12427,8854 12378,8777 12328,8701 12245,8646 12128,8612 12092,8602 12050,8594 12004,8590 11958,8586 11898,8584 11824,8584 L 11506,8584 11506,9538 11874,9538 C 11973,9538 12059,9526 12131,9502 12204,9478 12264,9444 12312,9401 12360,9358 12395,9307 12418,9249 12441,9191 12452,9127 12452,9059 Z M 13020,11049 C 13020,11061 13018,11071 13013,11080 13009,11089 13000,11096 12985,11102 12970,11108 12950,11112 12924,11115 12897,11118 12862,11120 12819,11120 12781,11120 12750,11118 12726,11115 12701,11112 12682,11107 12668,11101 12653,11094 12642,11085 12634,11074 12626,11062 12619,11047 12613,11030 L 12351,10361 C 12321,10285 12289,10216 12256,10152 12223,10089 12184,10034 12139,9988 12094,9942 12040,9906 11979,9881 11918,9855 11844,9842 11758,9842 L 11506,9842 11506,11049 C 11506,11061 11503,11071 11496,11080 11490,11089 11480,11096 11466,11101 11452,11106 11433,11110 11409,11114 11385,11118 11355,11120 11318,11120 11282,11120 11251,11118 11227,11114 11203,11110 11184,11106 11169,11101 11155,11096 11144,11089 11139,11080 11133,11071 11130,11061 11130,11049 L 11130,8426 C 11130,8369 11145,8329 11175,8307 11205,8284 11236,8273 11270,8273 L 11872,8273 C 11943,8273 12003,8275 12050,8278 12098,8282 12140,8286 12178,8290 12288,8309 12384,8339 12468,8380 12553,8421 12624,8473 12681,8535 12738,8598 12780,8670 12809,8751 12837,8832 12851,8921 12851,9019 12851,9114 12839,9199 12813,9274 12788,9349 12751,9416 12703,9473 12654,9531 12597,9581 12530,9623 12462,9666 12386,9701 12303,9731 12350,9751 12392,9777 12430,9808 12468,9840 12503,9877 12537,9921 12570,9965 12601,10015 12630,10072 12660,10129 12689,10193 12718,10265 L 12972,10890 C 12992,10942 13005,10979 13011,11000 13017,11021 13020,11038 13020,11049 Z"/>
        </g>
       </g>
       <g class="com.sun.star.drawing.ClosedBezierShape">
        <g id="id16">
         <rect class="BoundingBox" stroke="none" fill="none" x="13283" y="8231" width="1745" height="2918"/>
         <path fill="rgb(217,28,92)" stroke="none" d="M 15027,10312 C 15027,10445 15003,10563 14954,10666 14905,10770 14837,10858 14749,10930 14663,11002 14560,11057 14443,11093 14325,11130 14199,11148 14063,11148 13968,11148 13880,11140 13799,11124 13718,11108 13646,11088 13583,11065 13519,11041 13466,11017 13423,10993 13380,10968 13350,10947 13333,10929 13316,10912 13304,10889 13296,10862 13288,10835 13284,10799 13284,10754 13284,10722 13285,10695 13288,10674 13291,10653 13296,10636 13301,10623 13307,10609 13315,10600 13323,10595 13332,10590 13342,10588 13354,10588 13374,10588 13403,10600 13440,10625 13478,10650 13525,10677 13584,10706 13642,10735 13713,10762 13795,10788 13877,10813 13973,10826 14081,10826 14162,10826 14237,10815 14305,10793 14373,10771 14431,10740 14480,10700 14529,10660 14567,10611 14593,10553 14619,10494 14632,10428 14632,10353 14632,10273 14614,10204 14578,10148 14541,10091 14493,10041 14433,9998 14373,9955 14305,9915 14228,9879 14152,9844 14073,9807 13993,9770 13913,9733 13835,9692 13759,9646 13683,9601 13615,9548 13555,9486 13495,9425 13447,9353 13410,9271 13373,9188 13354,9089 13354,8974 13354,8856 13375,8751 13418,8658 13462,8564 13521,8487 13598,8424 13675,8361 13766,8313 13872,8280 13977,8248 14092,8231 14214,8231 14277,8231 14340,8237 14404,8248 14467,8258 14527,8273 14583,8291 14639,8310 14689,8330 14733,8353 14778,8375 14807,8393 14820,8407 14834,8421 14843,8432 14848,8440 14852,8448 14856,8458 14859,8471 14862,8483 14864,8498 14865,8516 14867,8533 14868,8556 14868,8584 14868,8610 14866,8634 14864,8655 14862,8675 14859,8692 14854,8706 14850,8720 14844,8730 14836,8737 14828,8743 14819,8747 14808,8747 14792,8747 14767,8736 14732,8716 14698,8695 14656,8672 14606,8647 14556,8620 14498,8597 14430,8576 14362,8555 14286,8544 14201,8544 14122,8544 14054,8555 13995,8576 13937,8597 13889,8626 13851,8661 13813,8696 13784,8738 13765,8786 13746,8834 13737,8885 13737,8939 13737,9018 13755,9086 13792,9143 13828,9200 13877,9250 13937,9294 13998,9338 14067,9378 14144,9414 14222,9451 14300,9488 14381,9525 14461,9562 14540,9603 14617,9647 14694,9692 14764,9744 14825,9805 14885,9866 14934,9937 14972,10019 15009,10102 15027,10199 15027,10312 Z"/>
        </g>
       </g>
       <g class="com.sun.star.drawing.ClosedBezierShape">
        <g id="id17">
         <rect class="BoundingBox" stroke="none" fill="none" x="15565" y="8260" width="378" height="2860"/>
         <path fill="rgb(217,28,92)" stroke="none" d="M 15942,11049 C 15942,11061 15939,11071 15934,11080 15928,11089 15918,11096 15903,11101 15888,11106 15869,11110 15845,11114 15820,11118 15790,11119 15753,11119 15718,11119 15688,11118 15663,11114 15639,11110 15619,11106 15604,11101 15590,11096 15579,11089 15574,11080 15568,11071 15565,11061 15565,11049 L 15565,8330 C 15565,8318 15568,8308 15575,8299 15581,8290 15592,8283 15608,8278 15623,8273 15643,8269 15667,8265 15691,8261 15720,8260 15753,8260 15790,8260 15820,8261 15845,8265 15869,8269 15888,8273 15903,8278 15918,8283 15928,8290 15934,8299 15939,8308 15942,8318 15942,8330 L 15942,11049 Z"/>
        </g>
       </g>
       <g class="com.sun.star.drawing.ClosedBezierShape">
        <g id="id18">
         <rect class="BoundingBox" stroke="none" fill="none" x="16393" y="8260" width="2394" height="2860"/>
         <path fill="rgb(217,28,92)" stroke="none" d="M 17840,11041 C 17835,11057 17826,11070 17816,11080 17806,11090 17792,11098 17774,11104 17755,11110 17732,11114 17704,11116 17675,11118 17640,11119 17597,11119 17565,11119 17537,11119 17513,11118 17489,11118 17468,11116 17451,11113 17433,11110 17418,11107 17406,11103 17393,11099 17383,11095 17374,11089 17365,11083 17358,11076 17353,11068 17348,11060 17343,11050 17339,11039 L 16412,8406 C 16400,8374 16394,8348 16393,8329 16393,8309 16399,8294 16412,8284 16425,8273 16446,8267 16476,8264 16505,8261 16544,8260 16594,8260 16635,8260 16667,8261 16691,8263 16715,8265 16734,8269 16747,8275 16760,8281 16770,8288 16777,8298 16783,8307 16789,8319 16796,8334 L 17608,10718 17610,10718 18401,8338 C 18405,8322 18410,8309 18416,8299 18422,8289 18432,8281 18447,8275 18461,8269 18482,8265 18508,8263 18534,8261 18569,8260 18613,8260 18658,8260 18694,8261 18720,8265 18747,8269 18764,8276 18774,8286 18783,8296 18787,8311 18785,8331 18783,8350 18776,8376 18764,8408 L 17840,11041 Z"/>
        </g>
       </g>
       <g class="com.sun.star.drawing.ClosedBezierShape">
        <g id="id19">
         <rect class="BoundingBox" stroke="none" fill="none" x="19238" y="8273" width="1578" height="2834"/>
         <path fill="rgb(217,28,92)" stroke="none" d="M 20815,10951 C 20815,10977 20814,11000 20811,11020 20808,11040 20803,11056 20796,11069 20788,11082 20780,11092 20770,11098 20761,11103 20750,11106 20739,11106 L 19379,11106 C 19346,11106 19313,11095 19283,11072 19253,11050 19238,11010 19238,10953 L 19238,8426 C 19238,8369 19253,8329 19283,8307 19313,8284 19346,8273 19379,8273 L 20723,8273 C 20735,8273 20746,8276 20755,8281 20765,8287 20772,8297 20778,8310 20784,8323 20789,8339 20792,8359 20796,8379 20798,8403 20798,8433 20798,8459 20796,8482 20792,8501 20789,8521 20784,8537 20778,8550 20772,8562 20765,8571 20755,8577 20746,8583 20735,8586 20723,8586 L 19616,8586 19616,9475 20566,9475 C 20577,9475 20588,9478 20598,9484 20607,9491 20615,9500 20622,9512 20628,9523 20633,9539 20636,9560 20639,9580 20640,9604 20640,9632 20640,9658 20639,9681 20636,9700 20633,9719 20628,9734 20622,9746 20615,9758 20607,9766 20598,9771 20588,9776 20577,9779 20566,9779 L 19616,9779 19616,10793 20739,10793 C 20750,10793 20761,10796 20770,10802 20780,10808 20788,10817 20796,10829 20803,10842 20808,10858 20811,10878 20814,10897 20815,10922 20815,10951 Z"/>
        </g>
       </g>
       <g class="com.sun.star.drawing.ClosedBezierShape">
        <g id="id20">
         <rect class="BoundingBox" stroke="none" fill="none" x="22441" y="8273" width="1578" height="2834"/>
         <path fill="rgb(208,210,211)" stroke="none" d="M 24018,10951 C 24018,10977 24017,11000 24014,11020 24011,11040 24006,11056 23998,11069 23991,11082 23983,11092 23973,11098 23964,11103 23953,11106 23941,11106 L 22582,11106 C 22548,11106 22517,11095 22487,11072 22456,11050 22441,11010 22441,10953 L 22441,8426 C 22441,8369 22456,8329 22487,8307 22517,8284 22548,8273 22582,8273 L 23926,8273 C 23938,8273 23948,8276 23958,8281 23967,8287 23975,8297 23981,8310 23987,8323 23991,8339 23995,8359 23999,8379 24000,8403 24000,8433 24000,8459 23999,8482 23995,8501 23991,8521 23987,8537 23981,8550 23975,8562 23967,8571 23958,8577 23948,8583 23938,8586 23926,8586 L 22818,8586 22818,9475 23768,9475 C 23780,9475 23791,9478 23800,9484 23810,9491 23818,9500 23824,9512 23831,9523 23836,9539 23838,9560 23841,9580 23843,9604 23843,9632 23843,9658 23841,9681 23838,9700 23836,9719 23831,9734 23824,9746 23818,9758 23810,9766 23800,9771 23791,9776 23780,9779 23768,9779 L 22818,9779 22818,10793 23941,10793 C 23953,10793 23964,10796 23973,10802 23983,10808 23991,10817 23998,10829 24006,10842 24011,10858 24014,10878 24017,10897 24018,10922 24018,10951 Z"/>
        </g>
       </g>
       <g class="com.sun.star.drawing.ClosedBezierShape">
        <g id="id21">
         <rect class="BoundingBox" stroke="none" fill="none" x="24630" y="8273" width="2180" height="2834"/>
         <path fill="rgb(208,210,211)" stroke="none" d="M 26413,9663 C 26413,9510 26394,9367 26356,9235 26318,9103 26259,8989 26178,8892 26097,8796 25994,8721 25869,8667 25745,8613 25585,8586 25390,8586 L 25006,8586 25006,10791 25394,10791 C 25575,10791 25727,10769 25851,10723 25976,10678 26080,10608 26163,10514 26246,10421 26309,10304 26350,10163 26392,10022 26413,9855 26413,9663 Z M 26809,9647 C 26809,9893 26778,10107 26715,10290 26652,10473 26561,10625 26440,10746 26320,10867 26172,10957 25997,11017 25821,11076 25612,11106 25370,11106 L 24770,11106 C 24736,11106 24705,11095 24675,11072 24645,11050 24630,11010 24630,10953 L 24630,8426 C 24630,8369 24645,8329 24675,8307 24705,8284 24736,8273 24770,8273 L 25411,8273 C 25657,8273 25864,8304 26034,8368 26203,8431 26345,8523 26460,8642 26574,8761 26661,8905 26720,9074 26780,9243 26809,9434 26809,9647 Z"/>
        </g>
       </g>
       <g class="com.sun.star.drawing.ClosedBezierShape">
        <g id="id22">
         <rect class="BoundingBox" stroke="none" fill="none" x="27384" y="8260" width="2136" height="2889"/>
         <path fill="rgb(208,210,211)" stroke="none" d="M 29519,10060 C 29519,10232 29494,10386 29444,10521 29393,10656 29321,10770 29228,10863 29135,10957 29021,11028 28886,11076 28752,11124 28600,11148 28429,11148 28273,11148 28131,11125 28002,11080 27874,11035 27763,10968 27672,10880 27580,10792 27509,10681 27459,10548 27409,10415 27384,10262 27384,10088 L 27384,8330 C 27384,8318 27387,8308 27393,8299 27398,8290 27409,8283 27424,8278 27439,8273 27458,8269 27481,8265 27504,8261 27535,8260 27573,8260 27608,8260 27638,8261 27663,8265 27688,8269 27707,8273 27721,8278 27735,8283 27745,8290 27750,8299 27756,8308 27759,8318 27759,8330 L 27759,10042 C 27759,10174 27775,10288 27807,10386 27839,10484 27886,10565 27946,10630 28007,10695 28080,10744 28165,10777 28251,10810 28347,10826 28453,10826 28563,10826 28660,10810 28745,10778 28831,10746 28903,10698 28962,10634 29021,10569 29066,10490 29098,10395 29129,10300 29145,10189 29145,10062 L 29145,8330 C 29145,8318 29148,8308 29154,8299 29159,8290 29170,8283 29184,8278 29199,8273 29218,8269 29242,8265 29266,8261 29297,8260 29333,8260 29368,8260 29398,8261 29422,8265 29446,8269 29465,8273 29479,8278 29492,8283 29503,8290 29509,8299 29516,8308 29519,8318 29519,8330 L 29519,10060 Z"/>
        </g>
       </g>
       <g class="com.sun.star.drawing.ClosedBezierShape">
        <g id="id23">
         <rect class="BoundingBox" stroke="none" fill="none" x="30100" y="8238" width="2058" height="2904"/>
         <path fill="rgb(208,210,211)" stroke="none" d="M 32157,10706 C 32157,10729 32156,10750 32155,10767 32153,10785 32151,10800 32147,10813 32143,10826 32139,10838 32133,10848 32127,10858 32117,10871 32102,10885 32088,10900 32057,10922 32010,10952 31964,10982 31906,11011 31836,11040 31767,11068 31687,11092 31598,11112 31508,11132 31410,11141 31303,11141 31119,11141 30953,11111 30805,11049 30657,10988 30531,10898 30427,10778 30321,10658 30241,10511 30185,10335 30129,10159 30100,9956 30100,9727 30100,9492 30131,9283 30191,9099 30252,8915 30337,8759 30447,8632 30557,8504 30688,8406 30840,8338 30993,8271 31162,8238 31347,8238 31429,8238 31508,8245 31586,8261 31663,8276 31734,8295 31800,8319 31866,8342 31924,8369 31975,8400 32026,8430 32062,8455 32081,8475 32101,8495 32114,8511 32120,8521 32126,8531 32130,8543 32134,8557 32138,8571 32141,8587 32143,8606 32145,8625 32146,8648 32146,8674 32146,8703 32145,8728 32142,8749 32139,8769 32134,8786 32128,8800 32123,8814 32116,8824 32108,8831 32099,8837 32090,8841 32078,8841 32057,8841 32029,8826 31992,8798 31955,8770 31908,8738 31850,8704 31792,8670 31722,8638 31639,8610 31556,8581 31456,8567 31341,8567 31214,8567 31100,8592 30996,8643 30893,8693 30804,8767 30731,8865 30658,8963 30601,9082 30560,9223 30520,9363 30500,9524 30500,9705 30500,9885 30519,10044 30558,10181 30597,10319 30653,10435 30725,10527 30798,10620 30887,10690 30993,10737 31098,10785 31218,10809 31352,10809 31465,10809 31563,10795 31648,10767 31732,10739 31804,10708 31863,10674 31923,10640 31971,10609 32010,10581 32048,10553 32078,10539 32100,10539 32110,10539 32119,10542 32126,10546 32134,10550 32139,10559 32144,10571 32148,10584 32151,10601 32154,10623 32156,10644 32157,10672 32157,10706 Z"/>
        </g>
       </g>
       <g class="com.sun.star.drawing.ClosedBezierShape">
        <g id="id24">
         <rect class="BoundingBox" stroke="none" fill="none" x="32355" y="8260" width="2443" height="2860"/>
         <path fill="rgb(208,210,211)" stroke="none" d="M 33557,8649 L 33555,8649 33067,10061 34052,10061 33557,8649 Z M 34777,10973 C 34789,11005 34795,11031 34796,11051 34797,11070 34791,11085 34780,11095 34768,11106 34749,11112 34722,11115 34695,11118 34658,11119 34613,11119 34568,11119 34532,11118 34505,11116 34478,11114 34457,11110 34444,11105 34430,11100 34419,11093 34413,11084 34406,11076 34400,11065 34394,11052 L 34150,10361 32973,10361 32741,11043 C 32736,11056 32730,11067 32723,11077 32716,11086 32705,11094 32691,11101 32677,11107 32658,11112 32632,11115 32607,11118 32573,11119 32533,11119 32490,11119 32456,11118 32429,11114 32402,11110 32383,11103 32372,11093 32361,11083 32356,11068 32356,11048 32357,11029 32363,11003 32375,10971 L 33325,8338 C 33331,8322 33338,8309 33348,8299 33357,8289 33371,8281 33390,8275 33408,8269 33431,8265 33460,8263 33488,8261 33524,8260 33568,8260 33615,8260 33653,8261 33684,8263 33715,8265 33739,8269 33758,8275 33777,8281 33792,8289 33802,8300 33812,8311 33820,8325 33826,8341 L 34777,10973 Z"/>
        </g>
       </g>
       <g class="com.sun.star.drawing.ClosedBezierShape">
        <g id="id25">
         <rect class="BoundingBox" stroke="none" fill="none" x="34555" y="8273" width="2121" height="2847"/>
         <path fill="rgb(208,210,211)" stroke="none" d="M 36675,8435 C 36675,8462 36674,8487 36671,8507 36668,8527 36663,8544 36657,8556 36650,8569 36642,8578 36633,8584 36623,8589 36613,8592 36601,8592 L 35804,8592 35804,11049 C 35804,11061 35801,11071 35795,11080 35789,11089 35779,11096 35765,11101 35750,11106 35731,11110 35707,11114 35683,11118 35651,11119 35615,11119 35580,11119 35550,11118 35525,11114 35500,11110 35480,11106 35466,11101 35451,11096 35441,11089 35435,11080 35429,11071 35427,11061 35427,11049 L 35427,8592 34630,8592 C 34618,8592 34607,8589 34598,8584 34588,8578 34581,8569 34575,8556 34569,8544 34564,8527 34561,8507 34557,8487 34555,8462 34555,8435 34555,8407 34557,8382 34561,8361 34564,8340 34569,8323 34575,8310 34581,8297 34588,8287 34598,8281 34607,8276 34618,8273 34630,8273 L 36601,8273 C 36613,8273 36623,8276 36633,8281 36642,8287 36650,8297 36657,8310 36663,8323 36668,8340 36671,8361 36674,8382 36675,8407 36675,8435 Z"/>
        </g>
       </g>
       <g class="com.sun.star.drawing.ClosedBezierShape">
        <g id="id26">
         <rect class="BoundingBox" stroke="none" fill="none" x="37084" y="8260" width="378" height="2860"/>
         <path fill="rgb(208,210,211)" stroke="none" d="M 37461,11049 C 37461,11061 37458,11071 37452,11080 37447,11089 37436,11096 37422,11101 37407,11106 37388,11110 37364,11114 37340,11118 37309,11119 37273,11119 37237,11119 37207,11118 37182,11114 37157,11110 37138,11106 37123,11101 37108,11096 37098,11089 37092,11080 37087,11071 37084,11061 37084,11049 L 37084,8330 C 37084,8318 37087,8308 37093,8299 37100,8290 37111,8283 37126,8278 37142,8273 37161,8269 37185,8265 37210,8261 37238,8260 37273,8260 37309,8260 37340,8261 37364,8265 37388,8269 37407,8273 37422,8278 37436,8283 37447,8290 37452,8299 37458,8308 37461,8318 37461,8330 L 37461,11049 Z"/>
        </g>
       </g>
       <g class="com.sun.star.drawing.ClosedBezierShape">
        <g id="id27">
         <rect class="BoundingBox" stroke="none" fill="none" x="38053" y="8231" width="2535" height="2918"/>
         <path fill="rgb(208,210,211)" stroke="none" d="M 40189,9683 C 40189,9523 40175,9374 40146,9236 40118,9098 40070,8978 40004,8877 39938,8775 39849,8696 39738,8639 39628,8581 39491,8553 39327,8553 39164,8553 39027,8584 38916,8646 38806,8707 38716,8789 38646,8891 38577,8993 38528,9112 38498,9249 38468,9385 38453,9529 38453,9679 38453,9845 38467,9999 38494,10139 38522,10279 38569,10400 38634,10501 38700,10603 38788,10681 38898,10738 39008,10794 39146,10822 39312,10822 39477,10822 39615,10791 39727,10730 39840,10669 39930,10586 39999,10481 40067,10377 40116,10256 40145,10119 40174,9982 40189,9837 40189,9683 Z M 40587,9657 C 40587,9886 40560,10093 40506,10277 40452,10461 40372,10617 40264,10746 40157,10875 40022,10975 39860,11044 39698,11113 39509,11148 39293,11148 39080,11148 38896,11116 38741,11053 38585,10989 38457,10897 38355,10776 38254,10655 38177,10504 38128,10325 38078,10145 38053,9939 38053,9705 38053,9482 38080,9279 38134,9097 38188,8914 38270,8759 38378,8632 38486,8503 38621,8404 38783,8335 38945,8266 39134,8231 39350,8231 39559,8231 39741,8262 39895,8325 40050,8388 40179,8480 40282,8600 40385,8721 40461,8870 40512,9048 40562,9225 40587,9428 40587,9657 Z"/>
        </g>
       </g>
       <g class="com.sun.star.drawing.ClosedBezierShape">
        <g id="id28">
         <rect class="BoundingBox" stroke="none" fill="none" x="41182" y="8266" width="2143" height="2855"/>
         <path fill="rgb(208,210,211)" stroke="none" d="M 43324,10951 C 43324,10980 43319,11005 43309,11025 43299,11046 43286,11063 43270,11076 43255,11089 43237,11098 43217,11104 43198,11110 43178,11113 43158,11113 L 43034,11113 C 42995,11113 42960,11109 42931,11101 42901,11093 42873,11078 42847,11057 42821,11036 42794,11007 42768,10971 42741,10934 42713,10887 42684,10830 L 41819,9218 C 41773,9135 41728,9048 41682,8957 41636,8866 41593,8777 41554,8691 L 41549,8691 C 41552,8796 41555,8903 41556,9013 41557,9122 41558,9231 41558,9339 L 41558,11049 C 41558,11060 41555,11070 41549,11079 41543,11089 41532,11096 41518,11101 41503,11106 41484,11110 41460,11114 41436,11118 41406,11119 41369,11119 41332,11119 41301,11118 41277,11114 41254,11110 41235,11106 41221,11101 41207,11096 41197,11089 41191,11079 41185,11070 41182,11060 41182,11049 L 41182,8435 C 41182,8376 41198,8335 41231,8310 41264,8285 41301,8273 41340,8273 L 41525,8273 C 41569,8273 41605,8276 41635,8284 41664,8291 41690,8303 41714,8320 41737,8337 41760,8360 41782,8390 41803,8420 41826,8457 41850,8503 L 42516,9746 C 42557,9822 42596,9896 42634,9968 42672,10040 42709,10112 42744,10182 42779,10252 42814,10321 42849,10388 42883,10456 42918,10525 42951,10593 L 42954,10593 C 42951,10478 42949,10358 42948,10233 42947,10108 42947,9988 42947,9873 L 42947,8336 C 42947,8326 42950,8316 42956,8308 42962,8299 42973,8291 42987,8285 43002,8278 43021,8273 43045,8271 43069,8268 43100,8266 43139,8266 43173,8266 43202,8268 43227,8271 43251,8273 43270,8278 43284,8285 43298,8291 43308,8299 43314,8308 43320,8316 43324,8326 43324,8336 L 43324,10951 Z"/>
        </g>
       </g>
      </g>
     </g>
    </g>
   </g>
  </g>
 </g>
</svg>